<svg width="75" height="68" viewBox="0 0 75 68" fill="none" xmlns="http://www.w3.org/2000/svg">
<mask id="mask0_3_109" style="mask-type:alpha" maskUnits="userSpaceOnUse" x="13" y="0" width="50" height="50">
<rect x="13" width="50" height="50" fill="#D9D9D9"/>
</mask>
<g mask="url(#mask0_3_109)">
<mask id="mask1_3_109" style="mask-type:alpha" maskUnits="userSpaceOnUse" x="12" y="-1" width="51" height="51">
<rect x="12.7365" y="-0.493256" width="50" height="50" fill="#D9D9D9"/>
</mask>
<g mask="url(#mask1_3_109)">
<path d="M27.3198 45.3401C26.1739 45.3401 25.1934 44.9324 24.3781 44.1172C23.5614 43.3005 23.1531 42.3192 23.1531 41.1734C23.1531 40.0276 23.5614 39.0463 24.3781 38.2297C25.1934 37.4144 26.1739 37.0067 27.3198 37.0067C28.4656 37.0067 29.4462 37.4144 30.2614 38.2297C31.0781 39.0463 31.4864 40.0276 31.4864 41.1734C31.4864 42.3192 31.0781 43.3005 30.2614 44.1172C29.4462 44.9324 28.4656 45.3401 27.3198 45.3401ZM48.1531 45.3401C47.0073 45.3401 46.0267 44.9324 45.2114 44.1172C44.3948 43.3005 43.9864 42.3192 43.9864 41.1734C43.9864 40.0276 44.3948 39.0463 45.2114 38.2297C46.0267 37.4144 47.0073 37.0067 48.1531 37.0067C49.2989 37.0067 50.2802 37.4144 51.0968 38.2297C51.9121 39.0463 52.3198 40.0276 52.3198 41.1734C52.3198 42.3192 51.9121 43.3005 51.0968 44.1172C50.2802 44.9324 49.2989 45.3401 48.1531 45.3401ZM25.5489 12.0067L30.5489 22.4234H45.1323L50.8614 12.0067H25.5489ZM23.5698 7.84007H54.2989C55.0975 7.84007 55.7052 8.19562 56.1218 8.90673C56.5385 9.61924 56.5559 10.3401 56.1739 11.0692L48.7781 24.4026C48.3961 25.097 47.8837 25.6352 47.2406 26.0172C46.5989 26.3991 45.8962 26.5901 45.1323 26.5901H29.6114L27.3198 30.7567H52.3198V34.9234H27.3198C25.7573 34.9234 24.5767 34.2373 23.7781 32.8651C22.9795 31.4942 22.9448 30.1317 23.6739 28.7776L26.4864 23.6734L18.9864 7.84007H14.8198V3.6734H21.5906L23.5698 7.84007Z" fill="#1C1B1F"/>
</g>
</g>
<path d="M7.56 54.37C7.65333 54.2233 7.77667 54.1033 7.93 54.01C8.08333 53.9167 8.24667 53.87 8.42 53.87H9.81L7.18 57.73C7.02 57.9767 6.85333 58.18 6.68 58.34C6.50667 58.4933 6.29333 58.6133 6.04 58.7C6.36 58.7867 6.63 58.9233 6.85 59.11C7.07 59.29 7.26667 59.5233 7.44 59.81L10.1 64H8.86C8.54 64 8.29333 63.9467 8.12 63.84C7.94667 63.7333 7.79667 63.58 7.67 63.38L5.7 60.23C5.38667 59.71 4.91667 59.45 4.29 59.45H3.2V64.01H1.41V53.87H3.2V58.25H4.16C4.69333 58.25 5.11 58.0233 5.41 57.57L7.56 54.37ZM15.6409 53.71C16.3809 53.71 17.0476 53.8333 17.6409 54.08C18.2343 54.3267 18.7409 54.6767 19.1609 55.13C19.5809 55.5833 19.9009 56.1333 20.1209 56.78C20.3476 57.42 20.4609 58.1367 20.4609 58.93C20.4609 59.73 20.3476 60.45 20.1209 61.09C19.9009 61.73 19.5809 62.2767 19.1609 62.73C18.7409 63.1833 18.2343 63.5333 17.6409 63.78C17.0476 64.02 16.3809 64.14 15.6409 64.14C14.8943 64.14 14.2209 64.02 13.6209 63.78C13.0276 63.5333 12.5209 63.1833 12.1009 62.73C11.6809 62.2767 11.3576 61.73 11.1309 61.09C10.9109 60.45 10.8009 59.73 10.8009 58.93C10.8009 58.1367 10.9109 57.42 11.1309 56.78C11.3576 56.1333 11.6809 55.5833 12.1009 55.13C12.5209 54.6767 13.0276 54.3267 13.6209 54.08C14.2209 53.8333 14.8943 53.71 15.6409 53.71ZM15.6409 62.75C16.6409 62.75 17.3876 62.4167 17.8809 61.75C18.3743 61.0767 18.6209 60.14 18.6209 58.94C18.6209 57.7333 18.3743 56.7933 17.8809 56.12C17.3876 55.4467 16.6409 55.11 15.6409 55.11C15.1343 55.11 14.6909 55.1967 14.3109 55.37C13.9376 55.5433 13.6243 55.7933 13.3709 56.12C13.1243 56.4467 12.9376 56.85 12.8109 57.33C12.6909 57.8033 12.6309 58.34 12.6309 58.94C12.6309 60.14 12.8776 61.0767 13.3709 61.75C13.8709 62.4167 14.6276 62.75 15.6409 62.75ZM24.5086 61.56C24.8353 62 25.1919 62.31 25.5786 62.49C25.9653 62.67 26.3986 62.76 26.8786 62.76C27.8253 62.76 28.5519 62.4233 29.0586 61.75C29.5653 61.0767 29.8186 60.1167 29.8186 58.87C29.8186 58.21 29.7586 57.6433 29.6386 57.17C29.5253 56.6967 29.3586 56.31 29.1386 56.01C28.9186 55.7033 28.6486 55.48 28.3286 55.34C28.0086 55.2 27.6453 55.13 27.2386 55.13C26.6586 55.13 26.1486 55.2633 25.7086 55.53C25.2753 55.7967 24.8753 56.1733 24.5086 56.66V61.56ZM24.4186 55.44C24.8453 54.9133 25.3386 54.49 25.8986 54.17C26.4586 53.85 27.0986 53.69 27.8186 53.69C28.4053 53.69 28.9353 53.8033 29.4086 54.03C29.8819 54.25 30.2853 54.58 30.6186 55.02C30.9519 55.4533 31.2086 55.9933 31.3886 56.64C31.5686 57.2867 31.6586 58.03 31.6586 58.87C31.6586 59.6167 31.5586 60.3133 31.3586 60.96C31.1586 61.6 30.8686 62.1567 30.4886 62.63C30.1153 63.0967 29.6553 63.4667 29.1086 63.74C28.5686 64.0067 27.9586 64.14 27.2786 64.14C26.6586 64.14 26.1253 64.0367 25.6786 63.83C25.2386 63.6167 24.8486 63.3233 24.5086 62.95V67.43H22.7186V53.87H23.7886C24.0419 53.87 24.1986 53.9933 24.2586 54.24L24.4186 55.44ZM33.0747 54.91C33.4547 54.55 33.9147 54.26 34.4547 54.04C35.0014 53.82 35.658 53.71 36.4247 53.71C37.038 53.71 37.578 53.7867 38.0447 53.94C38.5114 54.0867 38.9014 54.2833 39.2147 54.53C39.5347 54.7767 39.7747 55.06 39.9347 55.38C40.1014 55.6933 40.1847 56.02 40.1847 56.36C40.1847 56.56 40.1514 56.77 40.0847 56.99C40.0247 57.21 39.9214 57.42 39.7747 57.62C39.628 57.82 39.438 58.0067 39.2047 58.18C38.9714 58.3533 38.6814 58.4933 38.3347 58.6C38.9814 58.7933 39.488 59.1033 39.8547 59.53C40.228 59.9567 40.4147 60.48 40.4147 61.1C40.4147 61.5667 40.308 61.99 40.0947 62.37C39.8814 62.7433 39.5947 63.0633 39.2347 63.33C38.8747 63.59 38.4547 63.79 37.9747 63.93C37.5014 64.07 37.0047 64.14 36.4847 64.14C36.158 64.14 35.8247 64.11 35.4847 64.05C35.1514 63.99 34.8247 63.8967 34.5047 63.77C34.1847 63.6367 33.8814 63.4733 33.5947 63.28C33.3147 63.0867 33.0647 62.8533 32.8447 62.58L33.3447 61.93C33.4247 61.8167 33.538 61.76 33.6847 61.76C33.8047 61.76 33.9314 61.8133 34.0647 61.92C34.2047 62.02 34.3747 62.1333 34.5747 62.26C34.7747 62.3867 35.018 62.5033 35.3047 62.61C35.598 62.71 35.9547 62.76 36.3747 62.76C36.7414 62.76 37.068 62.7167 37.3547 62.63C37.648 62.5367 37.8947 62.41 38.0947 62.25C38.2947 62.09 38.448 61.9 38.5547 61.68C38.6614 61.46 38.7147 61.22 38.7147 60.96C38.7147 60.46 38.5047 60.0567 38.0847 59.75C37.6714 59.4433 37.0414 59.29 36.1947 59.29H35.0447V58.11H36.1947C36.5614 58.11 36.8914 58.0733 37.1847 58C37.478 57.92 37.728 57.8133 37.9347 57.68C38.1414 57.5467 38.298 57.3867 38.4047 57.2C38.5114 57.0067 38.5647 56.8 38.5647 56.58C38.5647 56.38 38.518 56.19 38.4247 56.01C38.338 55.83 38.2014 55.6733 38.0147 55.54C37.8347 55.4067 37.608 55.3 37.3347 55.22C37.0614 55.14 36.7414 55.1 36.3747 55.1C35.9747 55.1 35.6347 55.14 35.3547 55.22C35.0814 55.3 34.848 55.3867 34.6547 55.48C34.468 55.5733 34.3147 55.66 34.1947 55.74C34.0747 55.82 33.9714 55.86 33.8847 55.86C33.798 55.86 33.7247 55.8433 33.6647 55.81C33.6114 55.7767 33.5514 55.7067 33.4847 55.6L33.0747 54.91ZM51.3891 53.87V64H49.6091V57.12C49.6091 56.9867 49.6157 56.8433 49.6291 56.69C49.6424 56.5367 49.6591 56.3833 49.6791 56.23C49.6191 56.3633 49.5591 56.4867 49.4991 56.6C49.4391 56.7133 49.3757 56.8167 49.3091 56.91L44.4191 63.56C44.3457 63.6667 44.2524 63.77 44.1391 63.87C44.0324 63.9633 43.9124 64.01 43.7791 64.01H42.6991V53.88H44.4891V60.76C44.4891 60.8867 44.4824 61.0267 44.4691 61.18C44.4557 61.3267 44.4391 61.4767 44.4191 61.63C44.4791 61.5033 44.5391 61.3867 44.5991 61.28C44.6591 61.1667 44.7191 61.0633 44.7791 60.97L49.6691 54.32C49.7424 54.2133 49.8357 54.1133 49.9491 54.02C50.0624 53.92 50.1857 53.87 50.3191 53.87H51.3891ZM62.643 53.87V64H60.853V59.26H55.993V64H54.203V53.87H55.993V57.91H60.853V53.87H62.643ZM70.9625 59.44C70.1425 59.4667 69.4425 59.5333 68.8625 59.64C68.2892 59.74 67.8192 59.8733 67.4525 60.04C67.0925 60.2067 66.8292 60.4033 66.6625 60.63C66.5025 60.8567 66.4225 61.11 66.4225 61.39C66.4225 61.6567 66.4658 61.8867 66.5525 62.08C66.6392 62.2733 66.7558 62.4333 66.9025 62.56C67.0558 62.68 67.2325 62.77 67.4325 62.83C67.6392 62.8833 67.8592 62.91 68.0925 62.91C68.4058 62.91 68.6925 62.88 68.9525 62.82C69.2125 62.7533 69.4558 62.66 69.6825 62.54C69.9158 62.42 70.1358 62.2767 70.3425 62.11C70.5558 61.9433 70.7625 61.7533 70.9625 61.54V59.44ZM65.2125 55.3C65.7725 54.76 66.3758 54.3567 67.0225 54.09C67.6692 53.8233 68.3858 53.69 69.1725 53.69C69.7392 53.69 70.2425 53.7833 70.6825 53.97C71.1225 54.1567 71.4925 54.4167 71.7925 54.75C72.0925 55.0833 72.3192 55.4867 72.4725 55.96C72.6258 56.4333 72.7025 56.9533 72.7025 57.52V64H71.9125C71.7392 64 71.6058 63.9733 71.5125 63.92C71.4192 63.86 71.3458 63.7467 71.2925 63.58L71.0925 62.62C70.8258 62.8667 70.5658 63.0867 70.3125 63.28C70.0592 63.4667 69.7925 63.6267 69.5125 63.76C69.2325 63.8867 68.9325 63.9833 68.6125 64.05C68.2992 64.1233 67.9492 64.16 67.5625 64.16C67.1692 64.16 66.7992 64.1067 66.4525 64C66.1058 63.8867 65.8025 63.72 65.5425 63.5C65.2892 63.28 65.0858 63.0033 64.9325 62.67C64.7858 62.33 64.7125 61.93 64.7125 61.47C64.7125 61.07 64.8225 60.6867 65.0425 60.32C65.2625 59.9467 65.6192 59.6167 66.1125 59.33C66.6058 59.0433 67.2492 58.81 68.0425 58.63C68.8358 58.4433 69.8092 58.3367 70.9625 58.31V57.52C70.9625 56.7333 70.7925 56.14 70.4525 55.74C70.1125 55.3333 69.6158 55.13 68.9625 55.13C68.5225 55.13 68.1525 55.1867 67.8525 55.3C67.5592 55.4067 67.3025 55.53 67.0825 55.67C66.8692 55.8033 66.6825 55.9267 66.5225 56.04C66.3692 56.1467 66.2158 56.2 66.0625 56.2C65.9425 56.2 65.8392 56.17 65.7525 56.11C65.6658 56.0433 65.5925 55.9633 65.5325 55.87L65.2125 55.3Z" fill="#414141"/>
</svg>
