<svg width="98" height="68" viewBox="0 0 98 68" fill="none" xmlns="http://www.w3.org/2000/svg">
<mask id="mask0_3_104" style="mask-type:alpha" maskUnits="userSpaceOnUse" x="24" y="0" width="50" height="50">
<rect x="24" width="50" height="50" fill="#D9D9D9"/>
</mask>
<g mask="url(#mask0_3_104)">
<path d="M49 43.75L45.9792 41.0416C42.4722 37.8819 39.5729 35.1562 37.2812 32.8646C34.9896 30.5729 33.1667 28.5153 31.8125 26.6916C30.4583 24.8694 29.5125 23.1944 28.975 21.6666C28.4361 20.1389 28.1667 18.5764 28.1667 16.9791C28.1667 13.7153 29.2604 10.9896 31.4479 8.80206C33.6354 6.61456 36.3611 5.52081 39.625 5.52081C41.4305 5.52081 43.1493 5.90276 44.7812 6.66665C46.4132 7.43054 47.8194 8.50692 49 9.89581C50.1805 8.50692 51.5868 7.43054 53.2187 6.66665C54.8507 5.90276 56.5694 5.52081 58.375 5.52081C61.6389 5.52081 64.3646 6.61456 66.5521 8.80206C68.7396 10.9896 69.8333 13.7153 69.8333 16.9791C69.8333 18.5764 69.5646 20.1389 69.0271 21.6666C68.4882 23.1944 67.5417 24.8694 66.1875 26.6916C64.8333 28.5153 63.0104 30.5729 60.7187 32.8646C58.4271 35.1562 55.5278 37.8819 52.0208 41.0416L49 43.75ZM49 38.125C52.3333 35.1389 55.0764 32.5778 57.2292 30.4416C59.3819 28.3069 61.0833 26.45 62.3333 24.8708C63.5833 23.2903 64.4514 21.8833 64.9375 20.65C65.4236 19.418 65.6667 18.1944 65.6667 16.9791C65.6667 14.8958 64.9722 13.1597 63.5833 11.7708C62.1944 10.3819 60.4583 9.68748 58.375 9.68748C56.743 9.68748 55.2326 10.1472 53.8437 11.0666C52.4549 11.9875 51.5 13.1597 50.9792 14.5833H47.0208C46.5 13.1597 45.5451 11.9875 44.1562 11.0666C42.7674 10.1472 41.2569 9.68748 39.625 9.68748C37.5417 9.68748 35.8055 10.3819 34.4167 11.7708C33.0278 13.1597 32.3333 14.8958 32.3333 16.9791C32.3333 18.1944 32.5764 19.418 33.0625 20.65C33.5486 21.8833 34.4167 23.2903 35.6667 24.8708C36.9167 26.45 38.618 28.3069 40.7708 30.4416C42.9236 32.5778 45.6667 35.1389 49 38.125Z" fill="#1C1B1F"/>
</g>
<path d="M10.1 53.87V64H8.32V57.12C8.32 56.9867 8.32667 56.8433 8.34 56.69C8.35333 56.5367 8.37 56.3833 8.39 56.23C8.33 56.3633 8.27 56.4867 8.21 56.6C8.15 56.7133 8.08667 56.8167 8.02 56.91L3.13 63.56C3.05667 63.6667 2.96333 63.77 2.85 63.87C2.74333 63.9633 2.62333 64.01 2.49 64.01H1.41V53.88H3.2V60.76C3.2 60.8867 3.19333 61.0267 3.18 61.18C3.16667 61.3267 3.15 61.4767 3.13 61.63C3.19 61.5033 3.25 61.3867 3.31 61.28C3.37 61.1667 3.43 61.0633 3.49 60.97L8.38 54.32C8.45333 54.2133 8.54667 54.1133 8.66 54.02C8.77333 53.92 8.89667 53.87 9.03 53.87H10.1ZM12.2739 54.91C12.6539 54.55 13.1139 54.26 13.6539 54.04C14.2006 53.82 14.8572 53.71 15.6239 53.71C16.2372 53.71 16.7772 53.7867 17.2439 53.94C17.7106 54.0867 18.1006 54.2833 18.4139 54.53C18.7339 54.7767 18.9739 55.06 19.1339 55.38C19.3006 55.6933 19.3839 56.02 19.3839 56.36C19.3839 56.56 19.3506 56.77 19.2839 56.99C19.2239 57.21 19.1206 57.42 18.9739 57.62C18.8272 57.82 18.6372 58.0067 18.4039 58.18C18.1706 58.3533 17.8806 58.4933 17.5339 58.6C18.1806 58.7933 18.6872 59.1033 19.0539 59.53C19.4272 59.9567 19.6139 60.48 19.6139 61.1C19.6139 61.5667 19.5072 61.99 19.2939 62.37C19.0806 62.7433 18.7939 63.0633 18.4339 63.33C18.0739 63.59 17.6539 63.79 17.1739 63.93C16.7006 64.07 16.2039 64.14 15.6839 64.14C15.3572 64.14 15.0239 64.11 14.6839 64.05C14.3506 63.99 14.0239 63.8967 13.7039 63.77C13.3839 63.6367 13.0806 63.4733 12.7939 63.28C12.5139 63.0867 12.2639 62.8533 12.0439 62.58L12.5439 61.93C12.6239 61.8167 12.7372 61.76 12.8839 61.76C13.0039 61.76 13.1306 61.8133 13.2639 61.92C13.4039 62.02 13.5739 62.1333 13.7739 62.26C13.9739 62.3867 14.2172 62.5033 14.5039 62.61C14.7972 62.71 15.1539 62.76 15.5739 62.76C15.9406 62.76 16.2672 62.7167 16.5539 62.63C16.8472 62.5367 17.0939 62.41 17.2939 62.25C17.4939 62.09 17.6472 61.9 17.7539 61.68C17.8606 61.46 17.9139 61.22 17.9139 60.96C17.9139 60.46 17.7039 60.0567 17.2839 59.75C16.8706 59.4433 16.2406 59.29 15.3939 59.29H14.2439V58.11H15.3939C15.7606 58.11 16.0906 58.0733 16.3839 58C16.6772 57.92 16.9272 57.8133 17.1339 57.68C17.3406 57.5467 17.4972 57.3867 17.6039 57.2C17.7106 57.0067 17.7639 56.8 17.7639 56.58C17.7639 56.38 17.7172 56.19 17.6239 56.01C17.5372 55.83 17.4006 55.6733 17.2139 55.54C17.0339 55.4067 16.8072 55.3 16.5339 55.22C16.2606 55.14 15.9406 55.1 15.5739 55.1C15.1739 55.1 14.8339 55.14 14.5539 55.22C14.2806 55.3 14.0472 55.3867 13.8539 55.48C13.6672 55.5733 13.5139 55.66 13.3939 55.74C13.2739 55.82 13.1706 55.86 13.0839 55.86C12.9972 55.86 12.9239 55.8433 12.8639 55.81C12.8106 55.7767 12.7506 55.7067 12.6839 55.6L12.2739 54.91ZM26.4683 62.82C27.4683 62.82 28.2216 62.5033 28.7283 61.87C29.2416 61.23 29.4983 60.3367 29.4983 59.19C29.4983 58.05 29.2516 57.16 28.7583 56.52C28.2716 55.88 27.5383 55.56 26.5583 55.56C26.0849 55.56 25.6583 55.6367 25.2783 55.79C24.8983 55.9367 24.5749 56.1533 24.3083 56.44C24.0483 56.7267 23.8449 57.08 23.6983 57.5C23.5583 57.92 23.4883 58.4 23.4883 58.94C23.4883 59.5467 23.5516 60.09 23.6783 60.57C23.8049 61.05 23.9916 61.4567 24.2383 61.79C24.4916 62.1233 24.8016 62.38 25.1683 62.56C25.5416 62.7333 25.9749 62.82 26.4683 62.82ZM27.1583 51.49C26.4783 51.55 25.8949 51.7 25.4083 51.94C24.9283 52.18 24.5283 52.5067 24.2083 52.92C23.8883 53.3267 23.6483 53.8167 23.4883 54.39C23.3283 54.9633 23.2349 55.61 23.2083 56.33C23.3683 56.01 23.5749 55.7233 23.8283 55.47C24.0816 55.21 24.3716 54.99 24.6983 54.81C25.0249 54.6233 25.3783 54.4833 25.7583 54.39C26.1449 54.29 26.5549 54.24 26.9883 54.24C27.6616 54.24 28.2649 54.36 28.7983 54.6C29.3383 54.8333 29.7949 55.1667 30.1683 55.6C30.5483 56.0333 30.8383 56.5567 31.0383 57.17C31.2383 57.7767 31.3383 58.45 31.3383 59.19C31.3383 59.9433 31.2216 60.6267 30.9883 61.24C30.7616 61.8467 30.4349 62.3667 30.0083 62.8C29.5816 63.2267 29.0683 63.5567 28.4683 63.79C27.8749 64.0233 27.2083 64.14 26.4683 64.14C25.7883 64.14 25.1516 64.0267 24.5583 63.8C23.9649 63.5733 23.4516 63.2 23.0183 62.68C22.5849 62.16 22.2416 61.4767 21.9883 60.63C21.7416 59.7767 21.6183 58.7267 21.6183 57.48C21.6183 56.4133 21.7149 55.4333 21.9083 54.54C22.1016 53.6467 22.4116 52.87 22.8383 52.21C23.2716 51.55 23.8283 51.02 24.5083 50.62C25.1949 50.2133 26.0283 49.9667 27.0083 49.88L30.6283 49.57L30.7283 50.49C30.7483 50.6967 30.7183 50.87 30.6383 51.01C30.5583 51.15 30.4149 51.2267 30.2083 51.24L27.1583 51.49ZM35.3875 61.56C35.7142 62 36.0708 62.31 36.4575 62.49C36.8442 62.67 37.2775 62.76 37.7575 62.76C38.7042 62.76 39.4308 62.4233 39.9375 61.75C40.4442 61.0767 40.6975 60.1167 40.6975 58.87C40.6975 58.21 40.6375 57.6433 40.5175 57.17C40.4042 56.6967 40.2375 56.31 40.0175 56.01C39.7975 55.7033 39.5275 55.48 39.2075 55.34C38.8875 55.2 38.5242 55.13 38.1175 55.13C37.5375 55.13 37.0275 55.2633 36.5875 55.53C36.1542 55.7967 35.7542 56.1733 35.3875 56.66V61.56ZM35.2975 55.44C35.7242 54.9133 36.2175 54.49 36.7775 54.17C37.3375 53.85 37.9775 53.69 38.6975 53.69C39.2842 53.69 39.8142 53.8033 40.2875 54.03C40.7608 54.25 41.1642 54.58 41.4975 55.02C41.8308 55.4533 42.0875 55.9933 42.2675 56.64C42.4475 57.2867 42.5375 58.03 42.5375 58.87C42.5375 59.6167 42.4375 60.3133 42.2375 60.96C42.0375 61.6 41.7475 62.1567 41.3675 62.63C40.9942 63.0967 40.5342 63.4667 39.9875 63.74C39.4475 64.0067 38.8375 64.14 38.1575 64.14C37.5375 64.14 37.0042 64.0367 36.5575 63.83C36.1175 63.6167 35.7275 63.3233 35.3875 62.95V67.43H33.5975V53.87H34.6675C34.9208 53.87 35.0775 53.9933 35.1375 54.24L35.2975 55.44ZM50.2789 59.44C49.4589 59.4667 48.7589 59.5333 48.1789 59.64C47.6056 59.74 47.1356 59.8733 46.7689 60.04C46.4089 60.2067 46.1456 60.4033 45.9789 60.63C45.8189 60.8567 45.7389 61.11 45.7389 61.39C45.7389 61.6567 45.7822 61.8867 45.8689 62.08C45.9556 62.2733 46.0722 62.4333 46.2189 62.56C46.3722 62.68 46.5489 62.77 46.7489 62.83C46.9556 62.8833 47.1756 62.91 47.4089 62.91C47.7222 62.91 48.0089 62.88 48.2689 62.82C48.5289 62.7533 48.7722 62.66 48.9989 62.54C49.2322 62.42 49.4522 62.2767 49.6589 62.11C49.8722 61.9433 50.0789 61.7533 50.2789 61.54V59.44ZM44.5289 55.3C45.0889 54.76 45.6922 54.3567 46.3389 54.09C46.9856 53.8233 47.7022 53.69 48.4889 53.69C49.0556 53.69 49.5589 53.7833 49.9989 53.97C50.4389 54.1567 50.8089 54.4167 51.1089 54.75C51.4089 55.0833 51.6356 55.4867 51.7889 55.96C51.9422 56.4333 52.0189 56.9533 52.0189 57.52V64H51.2289C51.0556 64 50.9222 63.9733 50.8289 63.92C50.7356 63.86 50.6622 63.7467 50.6089 63.58L50.4089 62.62C50.1422 62.8667 49.8822 63.0867 49.6289 63.28C49.3756 63.4667 49.1089 63.6267 48.8289 63.76C48.5489 63.8867 48.2489 63.9833 47.9289 64.05C47.6156 64.1233 47.2656 64.16 46.8789 64.16C46.4856 64.16 46.1156 64.1067 45.7689 64C45.4222 63.8867 45.1189 63.72 44.8589 63.5C44.6056 63.28 44.4022 63.0033 44.2489 62.67C44.1022 62.33 44.0289 61.93 44.0289 61.47C44.0289 61.07 44.1389 60.6867 44.3589 60.32C44.5789 59.9467 44.9356 59.6167 45.4289 59.33C45.9222 59.0433 46.5656 58.81 47.3589 58.63C48.1522 58.4433 49.1256 58.3367 50.2789 58.31V57.52C50.2789 56.7333 50.1089 56.14 49.7689 55.74C49.4289 55.3333 48.9322 55.13 48.2789 55.13C47.8389 55.13 47.4689 55.1867 47.1689 55.3C46.8756 55.4067 46.6189 55.53 46.3989 55.67C46.1856 55.8033 45.9989 55.9267 45.8389 56.04C45.6856 56.1467 45.5322 56.2 45.3789 56.2C45.2589 56.2 45.1556 56.17 45.0689 56.11C44.9822 56.0433 44.9089 55.9633 44.8489 55.87L44.5289 55.3ZM63.1703 53.87V64H61.3803V59.26H56.5203V64H54.7303V53.87H56.5203V57.91H61.3803V53.87H63.1703ZM74.4398 53.87V64H72.6498V59.26H67.7898V64H65.9998V53.87H67.7898V57.91H72.6498V53.87H74.4398ZM81.5394 53.71C82.2794 53.71 82.946 53.8333 83.5394 54.08C84.1327 54.3267 84.6394 54.6767 85.0594 55.13C85.4794 55.5833 85.7994 56.1333 86.0194 56.78C86.246 57.42 86.3594 58.1367 86.3594 58.93C86.3594 59.73 86.246 60.45 86.0194 61.09C85.7994 61.73 85.4794 62.2767 85.0594 62.73C84.6394 63.1833 84.1327 63.5333 83.5394 63.78C82.946 64.02 82.2794 64.14 81.5394 64.14C80.7927 64.14 80.1194 64.02 79.5194 63.78C78.926 63.5333 78.4194 63.1833 77.9994 62.73C77.5794 62.2767 77.256 61.73 77.0294 61.09C76.8094 60.45 76.6994 59.73 76.6994 58.93C76.6994 58.1367 76.8094 57.42 77.0294 56.78C77.256 56.1333 77.5794 55.5833 77.9994 55.13C78.4194 54.6767 78.926 54.3267 79.5194 54.08C80.1194 53.8333 80.7927 53.71 81.5394 53.71ZM81.5394 62.75C82.5394 62.75 83.286 62.4167 83.7794 61.75C84.2727 61.0767 84.5194 60.14 84.5194 58.94C84.5194 57.7333 84.2727 56.7933 83.7794 56.12C83.286 55.4467 82.5394 55.11 81.5394 55.11C81.0327 55.11 80.5894 55.1967 80.2094 55.37C79.836 55.5433 79.5227 55.7933 79.2694 56.12C79.0227 56.4467 78.836 56.85 78.7094 57.33C78.5894 57.8033 78.5294 58.34 78.5294 58.94C78.5294 60.14 78.776 61.0767 79.2694 61.75C79.7694 62.4167 80.526 62.75 81.5394 62.75ZM95.397 57.83C95.397 57.4167 95.337 57.04 95.217 56.7C95.1037 56.3533 94.9337 56.0567 94.707 55.81C94.487 55.5567 94.217 55.3633 93.897 55.23C93.577 55.09 93.2137 55.02 92.807 55.02C91.9537 55.02 91.277 55.27 90.777 55.77C90.2837 56.2633 89.977 56.95 89.857 57.83H95.397ZM96.837 62.58C96.617 62.8467 96.3537 63.08 96.047 63.28C95.7404 63.4733 95.4104 63.6333 95.057 63.76C94.7104 63.8867 94.3504 63.98 93.977 64.04C93.6037 64.1067 93.2337 64.14 92.867 64.14C92.167 64.14 91.5204 64.0233 90.927 63.79C90.3404 63.55 89.8304 63.2033 89.397 62.75C88.9704 62.29 88.637 61.7233 88.397 61.05C88.157 60.3767 88.037 59.6033 88.037 58.73C88.037 58.0233 88.1437 57.3633 88.357 56.75C88.577 56.1367 88.8904 55.6067 89.297 55.16C89.7037 54.7067 90.2004 54.3533 90.787 54.1C91.3737 53.84 92.0337 53.71 92.767 53.71C93.3737 53.71 93.9337 53.8133 94.447 54.02C94.967 54.22 95.4137 54.5133 95.787 54.9C96.167 55.28 96.4637 55.7533 96.677 56.32C96.8904 56.88 96.997 57.52 96.997 58.24C96.997 58.52 96.967 58.7067 96.907 58.8C96.847 58.8933 96.7337 58.94 96.567 58.94H89.797C89.817 59.58 89.9037 60.1367 90.057 60.61C90.217 61.0833 90.437 61.48 90.717 61.8C90.997 62.1133 91.3304 62.35 91.717 62.51C92.1037 62.6633 92.537 62.74 93.017 62.74C93.4637 62.74 93.847 62.69 94.167 62.59C94.4937 62.4833 94.7737 62.37 95.007 62.25C95.2404 62.13 95.4337 62.02 95.587 61.92C95.747 61.8133 95.8837 61.76 95.997 61.76C96.1437 61.76 96.257 61.8167 96.337 61.93L96.837 62.58Z" fill="#414141"/>
</svg>
