<svg width="63" height="68" viewBox="0 0 63 68" fill="none" xmlns="http://www.w3.org/2000/svg">
<mask id="mask0_3_103" style="mask-type:alpha" maskUnits="userSpaceOnUse" x="6" y="0" width="50" height="50">
<rect x="6" width="50" height="50" fill="#D9D9D9"/>
</mask>
<g mask="url(#mask0_3_103)">
<path d="M41.3646 25.7292L30.2708 14.6354L41.3646 3.54169L52.4583 14.6354L41.3646 25.7292ZM12.25 21.9792V6.3021H27.9271V21.9792H12.25ZM34.0208 43.75V28.0729H49.6979V43.75H34.0208ZM12.25 43.75V28.0729H27.9271V43.75H12.25ZM15.375 18.8542H24.8021V9.4271H15.375V18.8542ZM41.5208 21.5104L48.2396 14.7917L41.5208 8.07294L34.8021 14.7917L41.5208 21.5104ZM37.1458 40.625H46.5729V31.1979H37.1458V40.625ZM15.375 40.625H24.8021V31.1979H15.375V40.625Z" fill="#1C1B1F"/>
</g>
<path d="M0.77 54.91C1.15 54.55 1.61 54.26 2.15 54.04C2.69667 53.82 3.35333 53.71 4.12 53.71C4.73333 53.71 5.27333 53.7867 5.74 53.94C6.20667 54.0867 6.59667 54.2833 6.91 54.53C7.23 54.7767 7.47 55.06 7.63 55.38C7.79667 55.6933 7.88 56.02 7.88 56.36C7.88 56.56 7.84667 56.77 7.78 56.99C7.72 57.21 7.61667 57.42 7.47 57.62C7.32333 57.82 7.13333 58.0067 6.9 58.18C6.66667 58.3533 6.37667 58.4933 6.03 58.6C6.67667 58.7933 7.18333 59.1033 7.55 59.53C7.92333 59.9567 8.11 60.48 8.11 61.1C8.11 61.5667 8.00333 61.99 7.79 62.37C7.57667 62.7433 7.29 63.0633 6.93 63.33C6.57 63.59 6.15 63.79 5.67 63.93C5.19667 64.07 4.7 64.14 4.18 64.14C3.85333 64.14 3.52 64.11 3.18 64.05C2.84667 63.99 2.52 63.8967 2.2 63.77C1.88 63.6367 1.57667 63.4733 1.29 63.28C1.01 63.0867 0.76 62.8533 0.54 62.58L1.04 61.93C1.12 61.8167 1.23333 61.76 1.38 61.76C1.5 61.76 1.62667 61.8133 1.76 61.92C1.9 62.02 2.07 62.1333 2.27 62.26C2.47 62.3867 2.71333 62.5033 3 62.61C3.29333 62.71 3.65 62.76 4.07 62.76C4.43667 62.76 4.76333 62.7167 5.05 62.63C5.34333 62.5367 5.59 62.41 5.79 62.25C5.99 62.09 6.14333 61.9 6.25 61.68C6.35667 61.46 6.41 61.22 6.41 60.96C6.41 60.46 6.2 60.0567 5.78 59.75C5.36667 59.4433 4.73667 59.29 3.89 59.29H2.74V58.11H3.89C4.25667 58.11 4.58667 58.0733 4.88 58C5.17333 57.92 5.42333 57.8133 5.63 57.68C5.83667 57.5467 5.99333 57.3867 6.1 57.2C6.20667 57.0067 6.26 56.8 6.26 56.58C6.26 56.38 6.21333 56.19 6.12 56.01C6.03333 55.83 5.89667 55.6733 5.71 55.54C5.53 55.4067 5.30333 55.3 5.03 55.22C4.75667 55.14 4.43667 55.1 4.07 55.1C3.67 55.1 3.33 55.14 3.05 55.22C2.77667 55.3 2.54333 55.3867 2.35 55.48C2.16333 55.5733 2.01 55.66 1.89 55.74C1.77 55.82 1.66667 55.86 1.58 55.86C1.49333 55.86 1.42 55.8433 1.36 55.81C1.30667 55.7767 1.24667 55.7067 1.18 55.6L0.77 54.91ZM15.8844 59.44C15.0644 59.4667 14.3644 59.5333 13.7844 59.64C13.211 59.74 12.741 59.8733 12.3744 60.04C12.0144 60.2067 11.751 60.4033 11.5844 60.63C11.4244 60.8567 11.3444 61.11 11.3444 61.39C11.3444 61.6567 11.3877 61.8867 11.4744 62.08C11.561 62.2733 11.6777 62.4333 11.8244 62.56C11.9777 62.68 12.1544 62.77 12.3544 62.83C12.561 62.8833 12.781 62.91 13.0144 62.91C13.3277 62.91 13.6144 62.88 13.8744 62.82C14.1344 62.7533 14.3777 62.66 14.6044 62.54C14.8377 62.42 15.0577 62.2767 15.2644 62.11C15.4777 61.9433 15.6844 61.7533 15.8844 61.54V59.44ZM10.1344 55.3C10.6944 54.76 11.2977 54.3567 11.9444 54.09C12.591 53.8233 13.3077 53.69 14.0944 53.69C14.661 53.69 15.1644 53.7833 15.6044 53.97C16.0444 54.1567 16.4144 54.4167 16.7144 54.75C17.0144 55.0833 17.241 55.4867 17.3944 55.96C17.5477 56.4333 17.6244 56.9533 17.6244 57.52V64H16.8344C16.661 64 16.5277 63.9733 16.4344 63.92C16.341 63.86 16.2677 63.7467 16.2144 63.58L16.0144 62.62C15.7477 62.8667 15.4877 63.0867 15.2344 63.28C14.981 63.4667 14.7144 63.6267 14.4344 63.76C14.1544 63.8867 13.8544 63.9833 13.5344 64.05C13.221 64.1233 12.871 64.16 12.4844 64.16C12.091 64.16 11.721 64.1067 11.3744 64C11.0277 63.8867 10.7244 63.72 10.4644 63.5C10.211 63.28 10.0077 63.0033 9.85438 62.67C9.70771 62.33 9.63438 61.93 9.63438 61.47C9.63438 61.07 9.74438 60.6867 9.96438 60.32C10.1844 59.9467 10.541 59.6167 11.0344 59.33C11.5277 59.0433 12.171 58.81 12.9644 58.63C13.7577 58.4433 14.731 58.3367 15.8844 58.31V57.52C15.8844 56.7333 15.7144 56.14 15.3744 55.74C15.0344 55.3333 14.5377 55.13 13.8844 55.13C13.4444 55.13 13.0744 55.1867 12.7744 55.3C12.481 55.4067 12.2244 55.53 12.0044 55.67C11.791 55.8033 11.6044 55.9267 11.4444 56.04C11.291 56.1467 11.1377 56.2 10.9844 56.2C10.8644 56.2 10.761 56.17 10.6744 56.11C10.5877 56.0433 10.5144 55.9633 10.4544 55.87L10.1344 55.3ZM26.4858 54.37C26.5791 54.2233 26.7024 54.1033 26.8558 54.01C27.0091 53.9167 27.1724 53.87 27.3458 53.87H28.7358L26.1058 57.73C25.9458 57.9767 25.7791 58.18 25.6058 58.34C25.4324 58.4933 25.2191 58.6133 24.9658 58.7C25.2858 58.7867 25.5558 58.9233 25.7758 59.11C25.9958 59.29 26.1924 59.5233 26.3658 59.81L29.0258 64H27.7858C27.4658 64 27.2191 63.9467 27.0458 63.84C26.8724 63.7333 26.7224 63.58 26.5958 63.38L24.6258 60.23C24.3124 59.71 23.8424 59.45 23.2158 59.45H22.1258V64.01H20.3358V53.87H22.1258V58.25H23.0858C23.6191 58.25 24.0358 58.0233 24.3358 57.57L26.4858 54.37ZM36.1773 59.44C35.3573 59.4667 34.6573 59.5333 34.0773 59.64C33.504 59.74 33.034 59.8733 32.6673 60.04C32.3073 60.2067 32.044 60.4033 31.8773 60.63C31.7173 60.8567 31.6373 61.11 31.6373 61.39C31.6373 61.6567 31.6807 61.8867 31.7673 62.08C31.854 62.2733 31.9707 62.4333 32.1173 62.56C32.2707 62.68 32.4473 62.77 32.6473 62.83C32.854 62.8833 33.074 62.91 33.3073 62.91C33.6207 62.91 33.9073 62.88 34.1673 62.82C34.4273 62.7533 34.6707 62.66 34.8973 62.54C35.1307 62.42 35.3507 62.2767 35.5573 62.11C35.7707 61.9433 35.9773 61.7533 36.1773 61.54V59.44ZM30.4273 55.3C30.9873 54.76 31.5907 54.3567 32.2373 54.09C32.884 53.8233 33.6007 53.69 34.3873 53.69C34.954 53.69 35.4573 53.7833 35.8973 53.97C36.3373 54.1567 36.7073 54.4167 37.0073 54.75C37.3073 55.0833 37.534 55.4867 37.6873 55.96C37.8407 56.4333 37.9173 56.9533 37.9173 57.52V64H37.1273C36.954 64 36.8207 63.9733 36.7273 63.92C36.634 63.86 36.5607 63.7467 36.5073 63.58L36.3073 62.62C36.0407 62.8667 35.7807 63.0867 35.5273 63.28C35.274 63.4667 35.0073 63.6267 34.7273 63.76C34.4473 63.8867 34.1473 63.9833 33.8273 64.05C33.514 64.1233 33.164 64.16 32.7773 64.16C32.384 64.16 32.014 64.1067 31.6673 64C31.3207 63.8867 31.0173 63.72 30.7573 63.5C30.504 63.28 30.3007 63.0033 30.1473 62.67C30.0007 62.33 29.9273 61.93 29.9273 61.47C29.9273 61.07 30.0373 60.6867 30.2573 60.32C30.4773 59.9467 30.834 59.6167 31.3273 59.33C31.8207 59.0433 32.464 58.81 33.2573 58.63C34.0507 58.4433 35.024 58.3367 36.1773 58.31V57.52C36.1773 56.7333 36.0073 56.14 35.6673 55.74C35.3273 55.3333 34.8307 55.13 34.1773 55.13C33.7373 55.13 33.3673 55.1867 33.0673 55.3C32.774 55.4067 32.5173 55.53 32.2973 55.67C32.084 55.8033 31.8973 55.9267 31.7373 56.04C31.584 56.1467 31.4307 56.2 31.2773 56.2C31.1573 56.2 31.054 56.17 30.9673 56.11C30.8807 56.0433 30.8073 55.9633 30.7473 55.87L30.4273 55.3ZM39.9888 54.91C40.3688 54.55 40.8288 54.26 41.3688 54.04C41.9154 53.82 42.5721 53.71 43.3388 53.71C43.9521 53.71 44.4921 53.7867 44.9588 53.94C45.4254 54.0867 45.8154 54.2833 46.1288 54.53C46.4488 54.7767 46.6888 55.06 46.8488 55.38C47.0154 55.6933 47.0988 56.02 47.0988 56.36C47.0988 56.56 47.0654 56.77 46.9988 56.99C46.9388 57.21 46.8354 57.42 46.6888 57.62C46.5421 57.82 46.3521 58.0067 46.1188 58.18C45.8854 58.3533 45.5954 58.4933 45.2488 58.6C45.8954 58.7933 46.4021 59.1033 46.7688 59.53C47.1421 59.9567 47.3288 60.48 47.3288 61.1C47.3288 61.5667 47.2221 61.99 47.0088 62.37C46.7954 62.7433 46.5088 63.0633 46.1488 63.33C45.7888 63.59 45.3688 63.79 44.8888 63.93C44.4154 64.07 43.9188 64.14 43.3988 64.14C43.0721 64.14 42.7388 64.11 42.3988 64.05C42.0654 63.99 41.7388 63.8967 41.4188 63.77C41.0988 63.6367 40.7954 63.4733 40.5088 63.28C40.2288 63.0867 39.9788 62.8533 39.7588 62.58L40.2588 61.93C40.3388 61.8167 40.4521 61.76 40.5988 61.76C40.7188 61.76 40.8454 61.8133 40.9788 61.92C41.1188 62.02 41.2888 62.1333 41.4888 62.26C41.6888 62.3867 41.9321 62.5033 42.2188 62.61C42.5121 62.71 42.8688 62.76 43.2888 62.76C43.6554 62.76 43.9821 62.7167 44.2687 62.63C44.5621 62.5367 44.8088 62.41 45.0088 62.25C45.2088 62.09 45.3621 61.9 45.4688 61.68C45.5754 61.46 45.6288 61.22 45.6288 60.96C45.6288 60.46 45.4188 60.0567 44.9988 59.75C44.5854 59.4433 43.9554 59.29 43.1088 59.29H41.9588V58.11H43.1088C43.4754 58.11 43.8054 58.0733 44.0988 58C44.3921 57.92 44.6421 57.8133 44.8488 57.68C45.0554 57.5467 45.2121 57.3867 45.3188 57.2C45.4254 57.0067 45.4788 56.8 45.4788 56.58C45.4788 56.38 45.4321 56.19 45.3388 56.01C45.2521 55.83 45.1154 55.6733 44.9288 55.54C44.7488 55.4067 44.5221 55.3 44.2488 55.22C43.9754 55.14 43.6554 55.1 43.2888 55.1C42.8888 55.1 42.5488 55.14 42.2688 55.22C41.9954 55.3 41.7621 55.3867 41.5688 55.48C41.3821 55.5733 41.2288 55.66 41.1088 55.74C40.9888 55.82 40.8854 55.86 40.7988 55.86C40.7121 55.86 40.6388 55.8433 40.5788 55.81C40.5254 55.7767 40.4654 55.7067 40.3988 55.6L39.9888 54.91ZM53.5031 62.7C53.8631 62.7 54.1731 62.6567 54.4331 62.57C54.6998 62.4767 54.9198 62.35 55.0931 62.19C55.2665 62.0233 55.3965 61.83 55.4831 61.61C55.5698 61.39 55.6131 61.15 55.6131 60.89C55.6131 60.65 55.5765 60.4267 55.5031 60.22C55.4298 60.0067 55.3065 59.82 55.1331 59.66C54.9665 59.5 54.7465 59.3733 54.4731 59.28C54.1998 59.1867 53.8665 59.14 53.4731 59.14H51.3131V62.7H53.5031ZM53.4731 57.84C54.1731 57.84 54.7598 57.9233 55.2331 58.09C55.7131 58.2567 56.0965 58.48 56.3831 58.76C56.6765 59.04 56.8865 59.3633 57.0131 59.73C57.1398 60.0967 57.2031 60.4767 57.2031 60.87C57.2031 61.3233 57.1231 61.7433 56.9631 62.13C56.8031 62.51 56.5665 62.84 56.2531 63.12C55.9398 63.3933 55.5531 63.61 55.0931 63.77C54.6331 63.9233 54.1031 64 53.5031 64H49.6131V53.87H51.3131V57.84H53.4731ZM61.2131 53.87V64H59.4331V53.87H61.2131Z" fill="#414141"/>
</svg>
