<svg width="68" height="68" viewBox="0 0 68 68" fill="none" xmlns="http://www.w3.org/2000/svg">
<mask id="mask0_3_238" style="mask-type:alpha" maskUnits="userSpaceOnUse" x="0" y="0" width="68" height="68">
<rect width="68" height="68" fill="#D9D9D9"/>
</mask>
<g mask="url(#mask0_3_238)">
<path d="M17.5667 49.5125C19.975 47.8125 22.525 46.4553 25.2167 45.441C27.9083 44.4248 30.8361 43.9167 34 43.9167C37.1639 43.9167 40.0917 44.4248 42.7833 45.441C45.475 46.4553 48.025 47.8125 50.4333 49.5125C52.3222 47.5764 53.8333 45.2974 54.9667 42.6757C56.1 40.0558 56.6667 37.1639 56.6667 34C56.6667 27.7194 54.4595 22.3711 50.0452 17.9548C45.6289 13.5405 40.2806 11.3333 34 11.3333C27.7194 11.3333 22.372 13.5405 17.9577 17.9548C13.5414 22.3711 11.3333 27.7194 11.3333 34C11.3333 37.1639 11.9 40.0558 13.0333 42.6757C14.1667 45.2974 15.6778 47.5764 17.5667 49.5125ZM34 35.4167C31.5917 35.4167 29.5734 34.6016 27.9452 32.9715C26.3151 31.3433 25.5 29.325 25.5 26.9167C25.5 24.5083 26.3151 22.4891 27.9452 20.859C29.5734 19.2308 31.5917 18.4167 34 18.4167C36.4083 18.4167 38.4266 19.2308 40.0548 20.859C41.6849 22.4891 42.5 24.5083 42.5 26.9167C42.5 29.325 41.6849 31.3433 40.0548 32.9715C38.4266 34.6016 36.4083 35.4167 34 35.4167ZM34 59.5C30.4583 59.5 27.1292 58.8389 24.0125 57.5167C20.8958 56.1944 18.1928 54.3887 15.9035 52.0993C13.6123 49.8081 11.8056 47.1042 10.4833 43.9875C9.16111 40.8708 8.5 37.5417 8.5 34C8.5 30.4583 9.16111 27.1292 10.4833 24.0125C11.8056 20.8958 13.6123 18.1919 15.9035 15.9007C18.1928 13.6113 20.8958 11.8056 24.0125 10.4833C27.1292 9.16111 30.4583 8.5 34 8.5C37.5417 8.5 40.8708 9.16111 43.9875 10.4833C47.1042 11.8056 49.8081 13.6113 52.0993 15.9007C54.3887 18.1919 56.1944 20.8958 57.5167 24.0125C58.8389 27.1292 59.5 30.4583 59.5 34C59.5 37.5417 58.8389 40.8708 57.5167 43.9875C56.1944 47.1042 54.3887 49.8081 52.0993 52.0993C49.8081 54.3887 47.1042 56.1944 43.9875 57.5167C40.8708 58.8389 37.5417 59.5 34 59.5Z" fill="#1C1B1F"/>
</g>
</svg>
