<svg width="202" height="39" viewBox="0 0 202 39" fill="none" xmlns="http://www.w3.org/2000/svg">
<path d="M42.2098 10.515C43.0198 9.795 43.9598 9.245 45.0298 8.865C46.0998 8.485 47.3148 8.295 48.6748 8.295C49.7848 8.295 50.7798 8.43 51.6598 8.7C52.5498 8.97 53.3048 9.35 53.9248 9.84C54.5448 10.33 55.0198 10.91 55.3498 11.58C55.6898 12.25 55.8598 12.985 55.8598 13.785C55.8598 14.865 55.5898 15.815 55.0498 16.635C54.5198 17.455 53.7698 18.09 52.7998 18.54C53.3498 18.77 53.8498 19.055 54.2998 19.395C54.7498 19.725 55.1348 20.1 55.4548 20.52C55.7848 20.94 56.0348 21.4 56.2048 21.9C56.3848 22.4 56.4748 22.925 56.4748 23.475C56.4748 24.415 56.2998 25.295 55.9498 26.115C55.5998 26.935 55.0898 27.65 54.4198 28.26C53.7598 28.86 52.9448 29.335 51.9748 29.685C51.0048 30.035 49.8998 30.21 48.6598 30.21C47.1198 30.21 45.7348 29.96 44.5048 29.46C43.2748 28.95 42.2198 28.265 41.3398 27.405L42.1798 26.025C42.2598 25.915 42.3598 25.825 42.4798 25.755C42.5998 25.675 42.7298 25.635 42.8698 25.635C43.0798 25.635 43.3298 25.75 43.6198 25.98C43.9098 26.2 44.2798 26.445 44.7298 26.715C45.1798 26.985 45.7248 27.235 46.3648 27.465C47.0148 27.685 47.8048 27.795 48.7348 27.795C49.5248 27.795 50.2298 27.7 50.8498 27.51C51.4798 27.32 52.0048 27.045 52.4248 26.685C52.8548 26.325 53.1798 25.885 53.3998 25.365C53.6298 24.845 53.7448 24.26 53.7448 23.61C53.7448 23.05 53.6348 22.535 53.4148 22.065C53.2048 21.595 52.8948 21.195 52.4848 20.865C52.0748 20.525 51.5748 20.265 50.9848 20.085C50.3948 19.895 49.7298 19.8 48.9898 19.8H46.0498V17.415H48.8698C49.4798 17.415 50.0448 17.34 50.5648 17.19C51.0948 17.04 51.5448 16.82 51.9148 16.53C52.2948 16.24 52.5898 15.885 52.7998 15.465C53.0198 15.045 53.1298 14.565 53.1298 14.025C53.1298 13.535 53.0298 13.085 52.8298 12.675C52.6298 12.265 52.3398 11.915 51.9598 11.625C51.5798 11.325 51.1148 11.095 50.5648 10.935C50.0148 10.775 49.3898 10.695 48.6898 10.695C47.8798 10.695 47.1898 10.78 46.6198 10.95C46.0498 11.12 45.5698 11.31 45.1798 11.52C44.7898 11.72 44.4698 11.905 44.2198 12.075C43.9798 12.245 43.7698 12.33 43.5898 12.33C43.4298 12.33 43.2998 12.295 43.1998 12.225C43.0998 12.155 43.0048 12.04 42.9148 11.88L42.2098 10.515ZM68.0813 23.16C66.8513 23.2 65.8013 23.3 64.9313 23.46C64.0713 23.61 63.3663 23.81 62.8163 24.06C62.2763 24.31 61.8813 24.605 61.6313 24.945C61.3913 25.285 61.2713 25.665 61.2713 26.085C61.2713 26.485 61.3363 26.83 61.4663 27.12C61.5963 27.41 61.7713 27.65 61.9913 27.84C62.2213 28.02 62.4863 28.155 62.7863 28.245C63.0963 28.325 63.4263 28.365 63.7763 28.365C64.2463 28.365 64.6763 28.32 65.0663 28.23C65.4563 28.13 65.8213 27.99 66.1613 27.81C66.5113 27.63 66.8413 27.415 67.1513 27.165C67.4713 26.915 67.7813 26.63 68.0813 26.31V23.16ZM59.4563 16.95C60.2963 16.14 61.2013 15.535 62.1713 15.135C63.1413 14.735 64.2163 14.535 65.3963 14.535C66.2463 14.535 67.0013 14.675 67.6613 14.955C68.3213 15.235 68.8763 15.625 69.3263 16.125C69.7763 16.625 70.1163 17.23 70.3463 17.94C70.5763 18.65 70.6913 19.43 70.6913 20.28V30H69.5063C69.2463 30 69.0463 29.96 68.9063 29.88C68.7663 29.79 68.6563 29.62 68.5763 29.37L68.2763 27.93C67.8763 28.3 67.4863 28.63 67.1063 28.92C66.7263 29.2 66.3263 29.44 65.9063 29.64C65.4863 29.83 65.0363 29.975 64.5563 30.075C64.0863 30.185 63.5613 30.24 62.9813 30.24C62.3913 30.24 61.8363 30.16 61.3163 30C60.7963 29.83 60.3413 29.58 59.9513 29.25C59.5713 28.92 59.2663 28.505 59.0363 28.005C58.8163 27.495 58.7063 26.895 58.7063 26.205C58.7063 25.605 58.8713 25.03 59.2013 24.48C59.5313 23.92 60.0663 23.425 60.8063 22.995C61.5463 22.565 62.5113 22.215 63.7013 21.945C64.8913 21.665 66.3513 21.505 68.0813 21.465V20.28C68.0813 19.1 67.8263 18.21 67.3163 17.61C66.8063 17 66.0613 16.695 65.0813 16.695C64.4213 16.695 63.8663 16.78 63.4163 16.95C62.9763 17.11 62.5913 17.295 62.2613 17.505C61.9413 17.705 61.6613 17.89 61.4213 18.06C61.1913 18.22 60.9613 18.3 60.7313 18.3C60.5513 18.3 60.3963 18.255 60.2663 18.165C60.1363 18.065 60.0263 17.945 59.9363 17.805L59.4563 16.95ZM97.9934 27.975V34.41C97.9934 34.67 97.9184 34.87 97.7684 35.01C97.6284 35.16 97.4434 35.235 97.2134 35.235H95.5634V30H74.7584V14.805H77.4434V27.975H83.6384V14.805H86.3234V27.975H92.5184V14.805H95.2034V27.975H97.9934ZM113.721 14.805V30H111.051V19.68C111.051 19.48 111.061 19.265 111.081 19.035C111.101 18.805 111.126 18.575 111.156 18.345C111.066 18.545 110.976 18.73 110.886 18.9C110.796 19.07 110.701 19.225 110.601 19.365L103.266 29.34C103.156 29.5 103.016 29.655 102.846 29.805C102.686 29.945 102.506 30.015 102.306 30.015H100.686V14.82H103.371V25.14C103.371 25.33 103.361 25.54 103.341 25.77C103.321 25.99 103.296 26.215 103.266 26.445C103.356 26.255 103.446 26.08 103.536 25.92C103.626 25.75 103.716 25.595 103.806 25.455L111.141 15.48C111.251 15.32 111.391 15.17 111.561 15.03C111.731 14.88 111.916 14.805 112.116 14.805H113.721ZM130.572 16.845H124.737V30H122.067V16.845H116.232V14.805H130.572V16.845ZM141.206 23.16C139.976 23.2 138.926 23.3 138.056 23.46C137.196 23.61 136.491 23.81 135.941 24.06C135.401 24.31 135.006 24.605 134.756 24.945C134.516 25.285 134.396 25.665 134.396 26.085C134.396 26.485 134.461 26.83 134.591 27.12C134.721 27.41 134.896 27.65 135.116 27.84C135.346 28.02 135.611 28.155 135.911 28.245C136.221 28.325 136.551 28.365 136.901 28.365C137.371 28.365 137.801 28.32 138.191 28.23C138.581 28.13 138.946 27.99 139.286 27.81C139.636 27.63 139.966 27.415 140.276 27.165C140.596 26.915 140.906 26.63 141.206 26.31V23.16ZM132.581 16.95C133.421 16.14 134.326 15.535 135.296 15.135C136.266 14.735 137.341 14.535 138.521 14.535C139.371 14.535 140.126 14.675 140.786 14.955C141.446 15.235 142.001 15.625 142.451 16.125C142.901 16.625 143.241 17.23 143.471 17.94C143.701 18.65 143.816 19.43 143.816 20.28V30H142.631C142.371 30 142.171 29.96 142.031 29.88C141.891 29.79 141.781 29.62 141.701 29.37L141.401 27.93C141.001 28.3 140.611 28.63 140.231 28.92C139.851 29.2 139.451 29.44 139.031 29.64C138.611 29.83 138.161 29.975 137.681 30.075C137.211 30.185 136.686 30.24 136.106 30.24C135.516 30.24 134.961 30.16 134.441 30C133.921 29.83 133.466 29.58 133.076 29.25C132.696 28.92 132.391 28.505 132.161 28.005C131.941 27.495 131.831 26.895 131.831 26.205C131.831 25.605 131.996 25.03 132.326 24.48C132.656 23.92 133.191 23.425 133.931 22.995C134.671 22.565 135.636 22.215 136.826 21.945C138.016 21.665 139.476 21.505 141.206 21.465V20.28C141.206 19.1 140.951 18.21 140.441 17.61C139.931 17 139.186 16.695 138.206 16.695C137.546 16.695 136.991 16.78 136.541 16.95C136.101 17.11 135.716 17.295 135.386 17.505C135.066 17.705 134.786 17.89 134.546 18.06C134.316 18.22 134.086 18.3 133.856 18.3C133.676 18.3 133.521 18.255 133.391 18.165C133.261 18.065 133.151 17.945 133.061 17.805L132.581 16.95ZM158.244 26.34C158.734 27 159.269 27.465 159.849 27.735C160.429 28.005 161.079 28.14 161.799 28.14C163.219 28.14 164.309 27.635 165.069 26.625C165.829 25.615 166.209 24.175 166.209 22.305C166.209 21.315 166.119 20.465 165.939 19.755C165.769 19.045 165.519 18.465 165.189 18.015C164.859 17.555 164.454 17.22 163.974 17.01C163.494 16.8 162.949 16.695 162.339 16.695C161.469 16.695 160.704 16.895 160.044 17.295C159.394 17.695 158.794 18.26 158.244 18.99V26.34ZM158.109 17.16C158.749 16.37 159.489 15.735 160.329 15.255C161.169 14.775 162.129 14.535 163.209 14.535C164.089 14.535 164.884 14.705 165.594 15.045C166.304 15.375 166.909 15.87 167.409 16.53C167.909 17.18 168.294 17.99 168.564 18.96C168.834 19.93 168.969 21.045 168.969 22.305C168.969 23.425 168.819 24.47 168.519 25.44C168.219 26.4 167.784 27.235 167.214 27.945C166.654 28.645 165.964 29.2 165.144 29.61C164.334 30.01 163.419 30.21 162.399 30.21C161.469 30.21 160.669 30.055 159.999 29.745C159.339 29.425 158.754 28.985 158.244 28.425V35.145H155.559V14.805H157.164C157.544 14.805 157.779 14.99 157.869 15.36L158.109 17.16ZM185.046 14.805L176.571 34.485C176.481 34.685 176.366 34.845 176.226 34.965C176.096 35.085 175.891 35.145 175.611 35.145H173.631L176.406 29.115L170.136 14.805H172.446C172.676 14.805 172.856 14.865 172.986 14.985C173.126 15.095 173.221 15.22 173.271 15.36L177.336 24.93C177.496 25.35 177.631 25.79 177.741 26.25C177.881 25.78 178.031 25.335 178.191 24.915L182.136 15.36C182.196 15.2 182.296 15.07 182.436 14.97C182.586 14.86 182.751 14.805 182.931 14.805H185.046ZM196.63 15.555C196.77 15.335 196.955 15.155 197.185 15.015C197.415 14.875 197.66 14.805 197.92 14.805H200.005L196.06 20.595C195.82 20.965 195.57 21.27 195.31 21.51C195.05 21.74 194.73 21.92 194.35 22.05C194.83 22.18 195.235 22.385 195.565 22.665C195.895 22.935 196.19 23.285 196.45 23.715L200.44 30H198.58C198.1 30 197.73 29.92 197.47 29.76C197.21 29.6 196.985 29.37 196.795 29.07L193.84 24.345C193.37 23.565 192.665 23.175 191.725 23.175H190.09V30.015H187.405V14.805H190.09V21.375H191.53C192.33 21.375 192.955 21.035 193.405 20.355L196.63 15.555Z" fill="black"/>
<mask id="mask0_3_264" style="mask-type:alpha" maskUnits="userSpaceOnUse" x="0" y="2" width="36" height="37">
<rect y="2.34915" width="36" height="36" fill="#D9D9D9"/>
</mask>
<g mask="url(#mask0_3_264)">
<path d="M12 33.8492C11.575 33.8492 11.2185 33.7052 10.9305 33.4172C10.6435 33.1302 10.5 32.7742 10.5 32.3492V27.8492H25.5V32.3492C25.5 32.7742 25.356 33.1302 25.068 33.4172C24.781 33.7052 24.425 33.8492 24 33.8492H12ZM28.5 14.3492V18.8492C28.5 18.9242 28.475 19.0242 28.425 19.1492L27.3 24.8492C27.225 25.2992 27.019 25.6617 26.682 25.9367C26.344 26.2117 25.95 26.3492 25.5 26.3492H10.5C10.05 26.3492 9.6565 26.2117 9.3195 25.9367C8.9815 25.6617 8.775 25.2992 8.7 24.8492L7.575 19.1492C7.525 19.0242 7.5 18.9242 7.5 18.8492V9.84915C7.5 9.02415 7.794 8.31765 8.382 7.72965C8.969 7.14265 9.675 6.84915 10.5 6.84915H22.5C23.325 6.84915 24.0315 7.14265 24.6195 7.72965C25.2065 8.31765 25.5 9.02415 25.5 9.84915V14.3492C25.5 13.9242 25.644 13.5677 25.932 13.2797C26.219 12.9927 26.575 12.8492 27 12.8492C27.425 12.8492 27.781 12.9927 28.068 13.2797C28.356 13.5677 28.5 13.9242 28.5 14.3492ZM11.475 23.3492H24.525L25.5 18.2492V17.3492H22.5V9.84915H10.5V18.2492L11.475 23.3492ZM12 17.3492H21V12.8492H12V17.3492Z" fill="#1C1B1F"/>
</g>
</svg>
