<svg width="270" height="39" viewBox="0 0 270 39" fill="none" xmlns="http://www.w3.org/2000/svg">
<path d="M56.902 11.1492H46.867V30.3492H43.957V8.85415H56.902V11.1492ZM60.689 14.9142C61.799 14.9142 62.799 15.0992 63.689 15.4692C64.579 15.8392 65.339 16.3642 65.969 17.0442C66.599 17.7242 67.079 18.5492 67.409 19.5192C67.749 20.4792 67.919 21.5542 67.919 22.7442C67.919 23.9442 67.749 25.0242 67.409 25.9842C67.079 26.9442 66.599 27.7642 65.969 28.4442C65.339 29.1242 64.579 29.6492 63.689 30.0192C62.799 30.3792 61.799 30.5592 60.689 30.5592C59.569 30.5592 58.559 30.3792 57.659 30.0192C56.769 29.6492 56.009 29.1242 55.379 28.4442C54.749 27.7642 54.264 26.9442 53.924 25.9842C53.594 25.0242 53.429 23.9442 53.429 22.7442C53.429 21.5542 53.594 20.4792 53.924 19.5192C54.264 18.5492 54.749 17.7242 55.379 17.0442C56.009 16.3642 56.769 15.8392 57.659 15.4692C58.559 15.0992 59.569 14.9142 60.689 14.9142ZM60.689 28.4742C62.189 28.4742 63.309 27.9742 64.049 26.9742C64.789 25.9642 65.159 24.5592 65.159 22.7592C65.159 20.9492 64.789 19.5392 64.049 18.5292C63.309 17.5192 62.189 17.0142 60.689 17.0142C59.929 17.0142 59.264 17.1442 58.694 17.4042C58.134 17.6642 57.664 18.0392 57.284 18.5292C56.914 19.0192 56.634 19.6242 56.444 20.3442C56.264 21.0542 56.174 21.8592 56.174 22.7592C56.174 24.5592 56.544 25.9642 57.284 26.9742C58.034 27.9742 59.169 28.4742 60.689 28.4742ZM84.186 30.3492H81.516V17.2542H76.716C76.596 19.1842 76.416 20.8542 76.176 22.2642C75.936 23.6642 75.646 24.8592 75.306 25.8492C74.976 26.8292 74.601 27.6292 74.181 28.2492C73.771 28.8592 73.336 29.3342 72.876 29.6742C72.426 30.0142 71.956 30.2442 71.466 30.3642C70.986 30.4842 70.506 30.5442 70.026 30.5442C69.176 30.5442 68.751 30.4092 68.751 30.1392V28.4442H69.531C69.871 28.4442 70.216 28.3842 70.566 28.2642C70.916 28.1442 71.256 27.9142 71.586 27.5742C71.926 27.2342 72.251 26.7592 72.561 26.1492C72.871 25.5292 73.151 24.7292 73.401 23.7492C73.661 22.7592 73.881 21.5642 74.061 20.1642C74.251 18.7542 74.396 17.0842 74.496 15.1542H84.186V30.3492ZM94.8199 14.9142C95.9299 14.9142 96.9299 15.0992 97.8199 15.4692C98.7099 15.8392 99.4699 16.3642 100.1 17.0442C100.73 17.7242 101.21 18.5492 101.54 19.5192C101.88 20.4792 102.05 21.5542 102.05 22.7442C102.05 23.9442 101.88 25.0242 101.54 25.9842C101.21 26.9442 100.73 27.7642 100.1 28.4442C99.4699 29.1242 98.7099 29.6492 97.8199 30.0192C96.9299 30.3792 95.9299 30.5592 94.8199 30.5592C93.6999 30.5592 92.6899 30.3792 91.7899 30.0192C90.8999 29.6492 90.1399 29.1242 89.5099 28.4442C88.8799 27.7642 88.3949 26.9442 88.0549 25.9842C87.7249 25.0242 87.5599 23.9442 87.5599 22.7442C87.5599 21.5542 87.7249 20.4792 88.0549 19.5192C88.3949 18.5492 88.8799 17.7242 89.5099 17.0442C90.1399 16.3642 90.8999 15.8392 91.7899 15.4692C92.6899 15.0992 93.6999 14.9142 94.8199 14.9142ZM94.8199 28.4742C96.3199 28.4742 97.4399 27.9742 98.1799 26.9742C98.9199 25.9642 99.2899 24.5592 99.2899 22.7592C99.2899 20.9492 98.9199 19.5392 98.1799 18.5292C97.4399 17.5192 96.3199 17.0142 94.8199 17.0142C94.0599 17.0142 93.3949 17.1442 92.8249 17.4042C92.2649 17.6642 91.7949 18.0392 91.4149 18.5292C91.0449 19.0192 90.7649 19.6242 90.5749 20.3442C90.3949 21.0542 90.3049 21.8592 90.3049 22.7592C90.3049 24.5592 90.6749 25.9642 91.4149 26.9742C92.1649 27.9742 93.2999 28.4742 94.8199 28.4742ZM111.271 28.4742C112.271 28.4742 113.061 28.2442 113.641 27.7842C114.221 27.3142 114.511 26.6742 114.511 25.8642C114.511 25.5042 114.456 25.1792 114.346 24.8892C114.236 24.5892 114.056 24.3292 113.806 24.1092C113.556 23.8892 113.221 23.7192 112.801 23.5992C112.391 23.4792 111.886 23.4192 111.286 23.4192H108.001V28.4742H111.271ZM108.001 16.9542V21.7242H110.926C111.366 21.7242 111.771 21.6642 112.141 21.5442C112.521 21.4142 112.846 21.2392 113.116 21.0192C113.386 20.7892 113.596 20.5192 113.746 20.2092C113.896 19.8892 113.971 19.5392 113.971 19.1592C113.971 18.8792 113.921 18.6092 113.821 18.3492C113.721 18.0792 113.551 17.8442 113.311 17.6442C113.071 17.4342 112.756 17.2692 112.366 17.1492C111.976 17.0192 111.496 16.9542 110.926 16.9542H108.001ZM111.001 15.1542C111.941 15.1542 112.746 15.2492 113.416 15.4392C114.086 15.6292 114.636 15.8892 115.066 16.2192C115.496 16.5392 115.811 16.9192 116.011 17.3592C116.211 17.7992 116.311 18.2692 116.311 18.7692C116.311 19.0992 116.266 19.4442 116.176 19.8042C116.086 20.1642 115.926 20.5092 115.696 20.8392C115.476 21.1692 115.171 21.4692 114.781 21.7392C114.401 21.9992 113.921 22.2042 113.341 22.3542C114.501 22.5542 115.396 22.9592 116.026 23.5692C116.656 24.1692 116.971 24.9642 116.971 25.9542C116.971 26.6942 116.821 27.3392 116.521 27.8892C116.231 28.4292 115.826 28.8842 115.306 29.2542C114.796 29.6242 114.196 29.8992 113.506 30.0792C112.816 30.2592 112.076 30.3492 111.286 30.3492H105.436V15.1542H111.001ZM132.979 15.1542V30.3492H130.294V23.2392H123.004V30.3492H120.319V15.1542H123.004V21.2142H130.294V15.1542H132.979ZM143.058 28.3992C143.598 28.3992 144.063 28.3342 144.453 28.2042C144.853 28.0642 145.183 27.8742 145.443 27.6342C145.703 27.3842 145.898 27.0942 146.028 26.7642C146.158 26.4342 146.223 26.0742 146.223 25.6842C146.223 25.3242 146.168 24.9892 146.058 24.6792C145.948 24.3592 145.763 24.0792 145.503 23.8392C145.253 23.5992 144.923 23.4092 144.513 23.2692C144.103 23.1292 143.603 23.0592 143.013 23.0592H139.773V28.3992H143.058ZM143.013 21.1092C144.063 21.1092 144.943 21.2342 145.653 21.4842C146.373 21.7342 146.948 22.0692 147.378 22.4892C147.818 22.9092 148.133 23.3942 148.323 23.9442C148.513 24.4942 148.608 25.0642 148.608 25.6542C148.608 26.3342 148.488 26.9642 148.248 27.5442C148.008 28.1142 147.653 28.6092 147.183 29.0292C146.713 29.4392 146.133 29.7642 145.443 30.0042C144.753 30.2342 143.958 30.3492 143.058 30.3492H137.223V15.1542H139.773V21.1092H143.013ZM154.623 15.1542V30.3492H151.953V15.1542H154.623ZM169.044 21.0942C169.044 20.4742 168.954 19.9092 168.774 19.3992C168.604 18.8792 168.349 18.4342 168.009 18.0642C167.679 17.6842 167.274 17.3942 166.794 17.1942C166.314 16.9842 165.769 16.8792 165.159 16.8792C163.879 16.8792 162.864 17.2542 162.114 18.0042C161.374 18.7442 160.914 19.7742 160.734 21.0942H169.044ZM171.204 28.2192C170.874 28.6192 170.479 28.9692 170.019 29.2692C169.559 29.5592 169.064 29.7992 168.534 29.9892C168.014 30.1792 167.474 30.3192 166.914 30.4092C166.354 30.5092 165.799 30.5592 165.249 30.5592C164.199 30.5592 163.229 30.3842 162.339 30.0342C161.459 29.6742 160.694 29.1542 160.044 28.4742C159.404 27.7842 158.904 26.9342 158.544 25.9242C158.184 24.9142 158.004 23.7542 158.004 22.4442C158.004 21.3842 158.164 20.3942 158.484 19.4742C158.814 18.5542 159.284 17.7592 159.894 17.0892C160.504 16.4092 161.249 15.8792 162.129 15.4992C163.009 15.1092 163.999 14.9142 165.099 14.9142C166.009 14.9142 166.849 15.0692 167.619 15.3792C168.399 15.6792 169.069 16.1192 169.629 16.6992C170.199 17.2692 170.644 17.9792 170.964 18.8292C171.284 19.6692 171.444 20.6292 171.444 21.7092C171.444 22.1292 171.399 22.4092 171.309 22.5492C171.219 22.6892 171.049 22.7592 170.799 22.7592H160.644C160.674 23.7192 160.804 24.5542 161.034 25.2642C161.274 25.9742 161.604 26.5692 162.024 27.0492C162.444 27.5192 162.944 27.8742 163.524 28.1142C164.104 28.3442 164.754 28.4592 165.474 28.4592C166.144 28.4592 166.719 28.3842 167.199 28.2342C167.689 28.0742 168.109 27.9042 168.459 27.7242C168.809 27.5442 169.099 27.3792 169.329 27.2292C169.569 27.0692 169.774 26.9892 169.944 26.9892C170.164 26.9892 170.334 27.0742 170.454 27.2442L171.204 28.2192ZM195.509 15.1542L187.034 34.8342C186.944 35.0342 186.829 35.1942 186.689 35.3142C186.559 35.4342 186.354 35.4942 186.074 35.4942H184.094L186.869 29.4642L180.599 15.1542H182.909C183.139 15.1542 183.319 15.2142 183.449 15.3342C183.589 15.4442 183.684 15.5692 183.734 15.7092L187.799 25.2792C187.959 25.6992 188.094 26.1392 188.204 26.5992C188.344 26.1292 188.494 25.6842 188.654 25.2642L192.599 15.7092C192.659 15.5492 192.759 15.4192 192.899 15.3192C193.049 15.2092 193.214 15.1542 193.394 15.1542H195.509ZM204.723 28.5792C206.223 28.5792 207.353 28.1042 208.113 27.1542C208.883 26.1942 209.268 24.8542 209.268 23.1342C209.268 21.4242 208.898 20.0892 208.158 19.1292C207.428 18.1692 206.328 17.6892 204.858 17.6892C204.148 17.6892 203.508 17.8042 202.938 18.0342C202.368 18.2542 201.883 18.5792 201.483 19.0092C201.093 19.4392 200.788 19.9692 200.568 20.5992C200.358 21.2292 200.253 21.9492 200.253 22.7592C200.253 23.6692 200.348 24.4842 200.538 25.2042C200.728 25.9242 201.008 26.5342 201.378 27.0342C201.758 27.5342 202.223 27.9192 202.773 28.1892C203.333 28.4492 203.983 28.5792 204.723 28.5792ZM205.758 11.5842C204.738 11.6742 203.863 11.8992 203.133 12.2592C202.413 12.6192 201.813 13.1092 201.333 13.7292C200.853 14.3392 200.493 15.0742 200.253 15.9342C200.013 16.7942 199.873 17.7642 199.833 18.8442C200.073 18.3642 200.383 17.9342 200.763 17.5542C201.143 17.1642 201.578 16.8342 202.068 16.5642C202.558 16.2842 203.088 16.0742 203.658 15.9342C204.238 15.7842 204.853 15.7092 205.503 15.7092C206.513 15.7092 207.418 15.8892 208.218 16.2492C209.028 16.5992 209.713 17.0992 210.273 17.7492C210.843 18.3992 211.278 19.1842 211.578 20.1042C211.878 21.0142 212.028 22.0242 212.028 23.1342C212.028 24.2642 211.853 25.2892 211.503 26.2092C211.163 27.1192 210.673 27.8992 210.033 28.5492C209.393 29.1892 208.623 29.6842 207.723 30.0342C206.833 30.3842 205.833 30.5592 204.723 30.5592C203.703 30.5592 202.748 30.3892 201.858 30.0492C200.968 29.7092 200.198 29.1492 199.548 28.3692C198.898 27.5892 198.383 26.5642 198.003 25.2942C197.633 24.0142 197.448 22.4392 197.448 20.5692C197.448 18.9692 197.593 17.4992 197.883 16.1592C198.173 14.8192 198.638 13.6542 199.278 12.6642C199.928 11.6742 200.763 10.8792 201.783 10.2792C202.813 9.66915 204.063 9.29915 205.533 9.16915L210.963 8.70415L211.113 10.0842C211.143 10.3942 211.098 10.6542 210.978 10.8642C210.858 11.0742 210.643 11.1892 210.333 11.2092L205.758 11.5842ZM221.822 14.9142C222.932 14.9142 223.932 15.0992 224.822 15.4692C225.712 15.8392 226.472 16.3642 227.102 17.0442C227.732 17.7242 228.212 18.5492 228.542 19.5192C228.882 20.4792 229.052 21.5542 229.052 22.7442C229.052 23.9442 228.882 25.0242 228.542 25.9842C228.212 26.9442 227.732 27.7642 227.102 28.4442C226.472 29.1242 225.712 29.6492 224.822 30.0192C223.932 30.3792 222.932 30.5592 221.822 30.5592C220.702 30.5592 219.692 30.3792 218.792 30.0192C217.902 29.6492 217.142 29.1242 216.512 28.4442C215.882 27.7642 215.397 26.9442 215.057 25.9842C214.727 25.0242 214.562 23.9442 214.562 22.7442C214.562 21.5542 214.727 20.4792 215.057 19.5192C215.397 18.5492 215.882 17.7242 216.512 17.0442C217.142 16.3642 217.902 15.8392 218.792 15.4692C219.692 15.0992 220.702 14.9142 221.822 14.9142ZM221.822 28.4742C223.322 28.4742 224.442 27.9742 225.182 26.9742C225.922 25.9642 226.292 24.5592 226.292 22.7592C226.292 20.9492 225.922 19.5392 225.182 18.5292C224.442 17.5192 223.322 17.0142 221.822 17.0142C221.062 17.0142 220.397 17.1442 219.827 17.4042C219.267 17.6642 218.797 18.0392 218.417 18.5292C218.047 19.0192 217.767 19.6242 217.577 20.3442C217.397 21.0542 217.307 21.8592 217.307 22.7592C217.307 24.5592 217.677 25.9642 218.417 26.9742C219.167 27.9742 220.302 28.4742 221.822 28.4742ZM235.123 26.6892C235.613 27.3492 236.148 27.8142 236.728 28.0842C237.308 28.3542 237.958 28.4892 238.678 28.4892C240.098 28.4892 241.188 27.9842 241.948 26.9742C242.708 25.9642 243.088 24.5242 243.088 22.6542C243.088 21.6642 242.998 20.8142 242.818 20.1042C242.648 19.3942 242.398 18.8142 242.068 18.3642C241.738 17.9042 241.333 17.5692 240.853 17.3592C240.373 17.1492 239.828 17.0442 239.218 17.0442C238.348 17.0442 237.583 17.2442 236.923 17.6442C236.273 18.0442 235.673 18.6092 235.123 19.3392V26.6892ZM234.988 17.5092C235.628 16.7192 236.368 16.0842 237.208 15.6042C238.048 15.1242 239.008 14.8842 240.088 14.8842C240.968 14.8842 241.763 15.0542 242.473 15.3942C243.183 15.7242 243.788 16.2192 244.288 16.8792C244.788 17.5292 245.173 18.3392 245.443 19.3092C245.713 20.2792 245.848 21.3942 245.848 22.6542C245.848 23.7742 245.698 24.8192 245.398 25.7892C245.098 26.7492 244.663 27.5842 244.093 28.2942C243.533 28.9942 242.843 29.5492 242.023 29.9592C241.213 30.3592 240.298 30.5592 239.278 30.5592C238.348 30.5592 237.548 30.4042 236.878 30.0942C236.218 29.7742 235.633 29.3342 235.123 28.7742V35.4942H232.438V15.1542H234.043C234.423 15.1542 234.658 15.3392 234.748 15.7092L234.988 17.5092ZM255.06 28.3992C255.6 28.3992 256.065 28.3342 256.455 28.2042C256.855 28.0642 257.185 27.8742 257.445 27.6342C257.705 27.3842 257.9 27.0942 258.03 26.7642C258.16 26.4342 258.225 26.0742 258.225 25.6842C258.225 25.3242 258.17 24.9892 258.06 24.6792C257.95 24.3592 257.765 24.0792 257.505 23.8392C257.255 23.5992 256.925 23.4092 256.515 23.2692C256.105 23.1292 255.605 23.0592 255.015 23.0592H251.775V28.3992H255.06ZM255.015 21.1092C256.065 21.1092 256.945 21.2342 257.655 21.4842C258.375 21.7342 258.95 22.0692 259.38 22.4892C259.82 22.9092 260.135 23.3942 260.325 23.9442C260.515 24.4942 260.61 25.0642 260.61 25.6542C260.61 26.3342 260.49 26.9642 260.25 27.5442C260.01 28.1142 259.655 28.6092 259.185 29.0292C258.715 29.4392 258.135 29.7642 257.445 30.0042C256.755 30.2342 255.96 30.3492 255.06 30.3492H249.225V15.1542H251.775V21.1092H255.015ZM266.625 15.1542V30.3492H263.955V15.1542H266.625Z" fill="black"/>
<mask id="mask0_3_269" style="mask-type:alpha" maskUnits="userSpaceOnUse" x="0" y="2" width="36" height="37">
<rect y="2.44396" width="36" height="36" fill="#D9D9D9"/>
</mask>
<g mask="url(#mask0_3_269)">
<path d="M1.57501 33.944V29.744C1.57501 28.919 1.78751 28.144 2.21251 27.419C2.63751 26.694 3.22501 26.144 3.97501 25.769C5.25001 25.119 6.68751 24.569 8.28751 24.119C9.88751 23.669 11.65 23.444 13.575 23.444C15.5 23.444 17.2625 23.669 18.8625 24.119C20.4625 24.569 21.9 25.119 23.175 25.769C23.925 26.144 24.5125 26.694 24.9375 27.419C25.3625 28.144 25.575 28.919 25.575 29.744V33.944H1.57501ZM4.57501 30.944H22.575V29.744C22.575 29.469 22.5065 29.219 22.3695 28.994C22.2315 28.769 22.05 28.594 21.825 28.469C20.925 28.019 19.769 27.569 18.357 27.119C16.944 26.669 15.35 26.444 13.575 26.444C11.8 26.444 10.2065 26.669 8.79451 27.119C7.38151 27.569 6.22501 28.019 5.32501 28.469C5.10001 28.594 4.91901 28.769 4.78201 28.994C4.64401 29.219 4.57501 29.469 4.57501 29.744V30.944ZM13.575 21.944C11.925 21.944 10.5125 21.3565 9.33751 20.1815C8.16251 19.0065 7.57501 17.594 7.57501 15.944H7.20001C6.97501 15.944 6.79401 15.8755 6.65701 15.7385C6.51901 15.6005 6.45001 15.419 6.45001 15.194C6.45001 14.969 6.51901 14.7875 6.65701 14.6495C6.79401 14.5125 6.97501 14.444 7.20001 14.444H7.57501C7.57501 13.319 7.85001 12.3065 8.40001 11.4065C8.95001 10.5065 9.67501 9.79396 10.575 9.26896V10.694C10.575 10.919 10.644 11.1 10.782 11.237C10.919 11.375 11.1 11.444 11.325 11.444C11.55 11.444 11.7315 11.375 11.8695 11.237C12.0065 11.1 12.075 10.919 12.075 10.694V8.66896C12.3 8.59396 12.5375 8.53746 12.7875 8.49946C13.0375 8.46246 13.3 8.44396 13.575 8.44396C13.85 8.44396 14.1125 8.46246 14.3625 8.49946C14.6125 8.53746 14.85 8.59396 15.075 8.66896V10.694C15.075 10.919 15.144 11.1 15.282 11.237C15.419 11.375 15.6 11.444 15.825 11.444C16.05 11.444 16.2315 11.375 16.3695 11.237C16.5065 11.1 16.575 10.919 16.575 10.694V9.26896C17.475 9.79396 18.2 10.5065 18.75 11.4065C19.3 12.3065 19.575 13.319 19.575 14.444H19.95C20.175 14.444 20.3565 14.5125 20.4945 14.6495C20.6315 14.7875 20.7 14.969 20.7 15.194C20.7 15.419 20.6315 15.6005 20.4945 15.7385C20.3565 15.8755 20.175 15.944 19.95 15.944H19.575C19.575 17.594 18.9875 19.0065 17.8125 20.1815C16.6375 21.3565 15.225 21.944 13.575 21.944ZM13.575 18.944C14.4 18.944 15.1065 18.65 15.6945 18.062C16.2815 17.475 16.575 16.769 16.575 15.944H10.575C10.575 16.769 10.869 17.475 11.457 18.062C12.044 18.65 12.75 18.944 13.575 18.944ZM24.825 24.944L24.6 23.819C24.45 23.769 24.3065 23.7125 24.1695 23.6495C24.0315 23.5875 23.9 23.494 23.775 23.369L22.725 23.744L21.975 22.394L22.8 21.644V20.744L21.975 19.994L22.725 18.644L23.775 19.019C23.875 18.919 24 18.8315 24.15 18.7565C24.3 18.6815 24.45 18.619 24.6 18.569L24.825 17.444H26.325L26.55 18.569C26.7 18.619 26.85 18.6815 27 18.7565C27.15 18.8315 27.275 18.919 27.375 19.019L28.425 18.644L29.175 19.994L28.35 20.744V21.644L29.175 22.394L28.425 23.744L27.375 23.369C27.25 23.494 27.119 23.5875 26.982 23.6495C26.844 23.7125 26.7 23.769 26.55 23.819L26.325 24.944H24.825ZM25.575 22.319C25.875 22.319 26.1375 22.2065 26.3625 21.9815C26.5875 21.7565 26.7 21.494 26.7 21.194C26.7 20.894 26.5875 20.6315 26.3625 20.4065C26.1375 20.1815 25.875 20.069 25.575 20.069C25.275 20.069 25.0125 20.1815 24.7875 20.4065C24.5625 20.6315 24.45 20.894 24.45 21.194C24.45 21.494 24.5625 21.7565 24.7875 21.9815C25.0125 22.2065 25.275 22.319 25.575 22.319ZM28.275 17.444L27.975 15.869C27.75 15.794 27.544 15.7 27.357 15.587C27.169 15.475 27 15.344 26.85 15.194L25.275 15.719L24.225 13.919L25.5 12.794C25.45 12.669 25.425 12.569 25.425 12.494V11.894C25.425 11.819 25.45 11.719 25.5 11.594L24.225 10.469L25.275 8.66896L26.85 9.19396C27 9.04396 27.169 8.91246 27.357 8.79946C27.544 8.68746 27.75 8.59396 27.975 8.51896L28.275 6.94396H30.375L30.675 8.51896C30.9 8.59396 31.1065 8.68746 31.2945 8.79946C31.4815 8.91246 31.65 9.04396 31.8 9.19396L33.375 8.66896L34.425 10.469L33.15 11.594C33.2 11.719 33.225 11.819 33.225 11.894V12.494C33.225 12.569 33.2 12.669 33.15 12.794L34.425 13.919L33.375 15.719L31.8 15.194C31.65 15.344 31.4815 15.475 31.2945 15.587C31.1065 15.7 30.9 15.794 30.675 15.869L30.375 17.444H28.275ZM29.325 14.069C29.85 14.069 30.294 13.8875 30.657 13.5245C31.019 13.1625 31.2 12.719 31.2 12.194C31.2 11.669 31.019 11.225 30.657 10.862C30.294 10.5 29.85 10.319 29.325 10.319C28.8 10.319 28.3565 10.5 27.9945 10.862C27.6315 11.225 27.45 11.669 27.45 12.194C27.45 12.719 27.6315 13.1625 27.9945 13.5245C28.3565 13.8875 28.8 14.069 29.325 14.069Z" fill="#1C1B1F"/>
</g>
</svg>
