<svg width="127" height="39" viewBox="0 0 127 39" fill="none" xmlns="http://www.w3.org/2000/svg">
<path d="M63.3148 19.26C63.3148 20.87 63.0598 22.35 62.5498 23.7C62.0398 25.04 61.3198 26.195 60.3898 27.165C59.4598 28.135 58.3398 28.89 57.0298 29.43C55.7298 29.96 54.2898 30.225 52.7098 30.225C51.1298 30.225 49.6898 29.96 48.3898 29.43C47.0898 28.89 45.9748 28.135 45.0448 27.165C44.1148 26.195 43.3948 25.04 42.8848 23.7C42.3748 22.35 42.1198 20.87 42.1198 19.26C42.1198 17.65 42.3748 16.175 42.8848 14.835C43.3948 13.485 44.1148 12.325 45.0448 11.355C45.9748 10.375 47.0898 9.615 48.3898 9.075C49.6898 8.535 51.1298 8.265 52.7098 8.265C54.2898 8.265 55.7298 8.535 57.0298 9.075C58.3398 9.615 59.4598 10.375 60.3898 11.355C61.3198 12.325 62.0398 13.485 62.5498 14.835C63.0598 16.175 63.3148 17.65 63.3148 19.26ZM60.3298 19.26C60.3298 17.94 60.1498 16.755 59.7898 15.705C59.4298 14.655 58.9198 13.77 58.2598 13.05C57.5998 12.32 56.7998 11.76 55.8598 11.37C54.9198 10.98 53.8698 10.785 52.7098 10.785C51.5598 10.785 50.5148 10.98 49.5748 11.37C48.6348 11.76 47.8298 12.32 47.1598 13.05C46.4998 13.77 45.9898 14.655 45.6298 15.705C45.2698 16.755 45.0898 17.94 45.0898 19.26C45.0898 20.58 45.2698 21.765 45.6298 22.815C45.9898 23.855 46.4998 24.74 47.1598 25.47C47.8298 26.19 48.6348 26.745 49.5748 27.135C50.5148 27.515 51.5598 27.705 52.7098 27.705C53.8698 27.705 54.9198 27.515 55.8598 27.135C56.7998 26.745 57.5998 26.19 58.2598 25.47C58.9198 24.74 59.4298 23.855 59.7898 22.815C60.1498 21.765 60.3298 20.58 60.3298 19.26ZM73.5861 28.23C75.0861 28.23 76.2161 27.755 76.9761 26.805C77.7461 25.845 78.1311 24.505 78.1311 22.785C78.1311 21.075 77.7611 19.74 77.0211 18.78C76.2911 17.82 75.1911 17.34 73.7211 17.34C73.0111 17.34 72.3711 17.455 71.8011 17.685C71.2311 17.905 70.7461 18.23 70.3461 18.66C69.9561 19.09 69.6511 19.62 69.4311 20.25C69.2211 20.88 69.1161 21.6 69.1161 22.41C69.1161 23.32 69.2111 24.135 69.4011 24.855C69.5911 25.575 69.8711 26.185 70.2411 26.685C70.6211 27.185 71.0861 27.57 71.6361 27.84C72.1961 28.1 72.8461 28.23 73.5861 28.23ZM74.6211 11.235C73.6011 11.325 72.7261 11.55 71.9961 11.91C71.2761 12.27 70.6761 12.76 70.1961 13.38C69.7161 13.99 69.3561 14.725 69.1161 15.585C68.8761 16.445 68.7361 17.415 68.6961 18.495C68.9361 18.015 69.2461 17.585 69.6261 17.205C70.0061 16.815 70.4411 16.485 70.9311 16.215C71.4211 15.935 71.9511 15.725 72.5211 15.585C73.1011 15.435 73.7161 15.36 74.3661 15.36C75.3761 15.36 76.2811 15.54 77.0811 15.9C77.8911 16.25 78.5761 16.75 79.1361 17.4C79.7061 18.05 80.1411 18.835 80.4411 19.755C80.7411 20.665 80.8911 21.675 80.8911 22.785C80.8911 23.915 80.7161 24.94 80.3661 25.86C80.0261 26.77 79.5361 27.55 78.8961 28.2C78.2561 28.84 77.4861 29.335 76.5861 29.685C75.6961 30.035 74.6961 30.21 73.5861 30.21C72.5661 30.21 71.6111 30.04 70.7211 29.7C69.8311 29.36 69.0611 28.8 68.4111 28.02C67.7611 27.24 67.2461 26.215 66.8661 24.945C66.4961 23.665 66.3111 22.09 66.3111 20.22C66.3111 18.62 66.4561 17.15 66.7461 15.81C67.0361 14.47 67.5011 13.305 68.1411 12.315C68.7911 11.325 69.6261 10.53 70.6461 9.93C71.6761 9.32 72.9261 8.95 74.3961 8.82L79.8261 8.355L79.9761 9.735C80.0061 10.045 79.9611 10.305 79.8411 10.515C79.7211 10.725 79.5061 10.84 79.1961 10.86L74.6211 11.235ZM96.804 14.805L88.329 34.485C88.239 34.685 88.124 34.845 87.984 34.965C87.854 35.085 87.649 35.145 87.369 35.145H85.389L88.164 29.115L81.894 14.805H84.204C84.434 14.805 84.614 14.865 84.744 14.985C84.884 15.095 84.979 15.22 85.029 15.36L89.094 24.93C89.254 25.35 89.389 25.79 89.499 26.25C89.639 25.78 89.789 25.335 89.949 24.915L93.894 15.36C93.954 15.2 94.054 15.07 94.194 14.97C94.344 14.86 94.509 14.805 94.689 14.805H96.804ZM104.998 28.125C105.998 28.125 106.788 27.895 107.368 27.435C107.948 26.965 108.238 26.325 108.238 25.515C108.238 25.155 108.183 24.83 108.073 24.54C107.963 24.24 107.783 23.98 107.533 23.76C107.283 23.54 106.948 23.37 106.528 23.25C106.118 23.13 105.613 23.07 105.013 23.07H101.728V28.125H104.998ZM101.728 16.605V21.375H104.653C105.093 21.375 105.498 21.315 105.868 21.195C106.248 21.065 106.573 20.89 106.843 20.67C107.113 20.44 107.323 20.17 107.473 19.86C107.623 19.54 107.698 19.19 107.698 18.81C107.698 18.53 107.648 18.26 107.548 18C107.448 17.73 107.278 17.495 107.038 17.295C106.798 17.085 106.483 16.92 106.093 16.8C105.703 16.67 105.223 16.605 104.653 16.605H101.728ZM104.728 14.805C105.668 14.805 106.473 14.9 107.143 15.09C107.813 15.28 108.363 15.54 108.793 15.87C109.223 16.19 109.538 16.57 109.738 17.01C109.938 17.45 110.038 17.92 110.038 18.42C110.038 18.75 109.993 19.095 109.903 19.455C109.813 19.815 109.653 20.16 109.423 20.49C109.203 20.82 108.898 21.12 108.508 21.39C108.128 21.65 107.648 21.855 107.068 22.005C108.228 22.205 109.123 22.61 109.753 23.22C110.383 23.82 110.698 24.615 110.698 25.605C110.698 26.345 110.548 26.99 110.248 27.54C109.958 28.08 109.553 28.535 109.033 28.905C108.523 29.275 107.923 29.55 107.233 29.73C106.543 29.91 105.803 30 105.013 30H99.1627V14.805H104.728ZM119.881 28.05C120.421 28.05 120.886 27.985 121.276 27.855C121.676 27.715 122.006 27.525 122.266 27.285C122.526 27.035 122.721 26.745 122.851 26.415C122.981 26.085 123.046 25.725 123.046 25.335C123.046 24.975 122.991 24.64 122.881 24.33C122.771 24.01 122.586 23.73 122.326 23.49C122.076 23.25 121.746 23.06 121.336 22.92C120.926 22.78 120.426 22.71 119.836 22.71H116.611V28.05H119.881ZM119.836 20.76C120.886 20.76 121.766 20.885 122.476 21.135C123.196 21.385 123.771 21.72 124.201 22.14C124.641 22.56 124.956 23.045 125.146 23.595C125.336 24.145 125.431 24.715 125.431 25.305C125.431 25.985 125.311 26.615 125.071 27.195C124.831 27.765 124.476 28.26 124.006 28.68C123.536 29.09 122.956 29.415 122.266 29.655C121.576 29.885 120.781 30 119.881 30H114.046V14.805H116.611V20.76H119.836Z" fill="black"/>
<mask id="mask0_3_259" style="mask-type:alpha" maskUnits="userSpaceOnUse" x="0" y="3" width="36" height="36">
<rect y="3" width="36" height="36" fill="#D9D9D9"/>
</mask>
<g mask="url(#mask0_3_259)">
<path d="M6 30.1508V7.65085H19.5V14.4008C19.5 15.0758 19.7065 15.6883 20.1195 16.2383C20.5315 16.7883 21.0625 17.1508 21.7125 17.3258L25.65 18.4133C26.925 18.7633 27.969 19.4693 28.782 20.5313C29.594 21.5943 30 22.8008 30 24.1508V30.1508H6ZM9 27.1508H27V24.1508C27 23.4758 26.7935 22.8818 26.3805 22.3688C25.9685 21.8568 25.4375 21.5008 24.7875 21.3008L20.85 20.1758C19.95 19.9008 19.1625 19.4568 18.4875 18.8438C17.8125 18.2318 17.3 17.5008 16.95 16.6508H14.25C14.05 16.6508 13.875 16.5758 13.725 16.4258C13.575 16.2758 13.5 16.1008 13.5 15.9008C13.5 15.7008 13.575 15.5258 13.725 15.3758C13.875 15.2258 14.05 15.1508 14.25 15.1508H16.65C16.6 14.8508 16.569 14.6008 16.557 14.4008C16.544 14.2008 16.525 13.9508 16.5 13.6508H14.25C14.05 13.6508 13.875 13.5758 13.725 13.4258C13.575 13.2758 13.5 13.1008 13.5 12.9008C13.5 12.7008 13.575 12.5258 13.725 12.3758C13.875 12.2258 14.05 12.1508 14.25 12.1508H16.5V10.6508H9V27.1508Z" fill="#1C1B1F"/>
</g>
</svg>
