<svg width="102" height="37" viewBox="0 0 102 37" fill="none" xmlns="http://www.w3.org/2000/svg">
<path d="M58.4848 26.023C58.6448 26.023 58.7848 26.088 58.9048 26.218L60.0598 27.463C59.1798 28.483 58.1098 29.278 56.8498 29.848C55.5998 30.418 54.0848 30.703 52.3048 30.703C50.7648 30.703 49.3648 30.438 48.1048 29.908C46.8448 29.368 45.7698 28.618 44.8798 27.658C43.9898 26.688 43.2998 25.528 42.8098 24.178C42.3198 22.828 42.0748 21.343 42.0748 19.723C42.0748 18.103 42.3298 16.618 42.8398 15.268C43.3498 13.918 44.0648 12.758 44.9848 11.788C45.9148 10.818 47.0248 10.068 48.3148 9.53801C49.6048 8.99801 51.0298 8.72801 52.5898 8.72801C54.1198 8.72801 55.4698 8.97301 56.6398 9.46301C57.8098 9.95301 58.8398 10.618 59.7298 11.458L58.7698 12.793C58.7098 12.893 58.6298 12.978 58.5298 13.048C58.4398 13.108 58.3148 13.138 58.1548 13.138C57.9748 13.138 57.7548 13.043 57.4948 12.853C57.2348 12.653 56.8948 12.433 56.4748 12.193C56.0548 11.953 55.5298 11.738 54.8998 11.548C54.2698 11.348 53.4948 11.248 52.5748 11.248C51.4648 11.248 50.4498 11.443 49.5298 11.833C48.6098 12.213 47.8148 12.768 47.1448 13.498C46.4848 14.228 45.9698 15.118 45.5998 16.168C45.2298 17.218 45.0448 18.403 45.0448 19.723C45.0448 21.063 45.2348 22.258 45.6148 23.308C46.0048 24.358 46.5298 25.248 47.1898 25.978C47.8598 26.698 48.6448 27.248 49.5448 27.628C50.4548 28.008 51.4348 28.198 52.4848 28.198C53.1248 28.198 53.6998 28.163 54.2098 28.093C54.7298 28.013 55.2048 27.893 55.6348 27.733C56.0748 27.573 56.4798 27.373 56.8498 27.133C57.2298 26.883 57.6048 26.588 57.9748 26.248C58.1448 26.098 58.3148 26.023 58.4848 26.023ZM80.8488 8.96801V30.463H77.9388V15.193C77.9388 14.763 77.9488 14.318 77.9688 13.858C77.9888 13.388 78.0338 12.893 78.1038 12.373C77.9338 12.823 77.7538 13.243 77.5638 13.633C77.3738 14.023 77.1788 14.363 76.9788 14.653L66.8988 29.548C66.7588 29.778 66.5788 29.988 66.3588 30.178C66.1388 30.368 65.8838 30.463 65.5938 30.463H63.4338V8.96801H66.3438V24.253C66.3438 24.683 66.3338 25.133 66.3138 25.603C66.2938 26.063 66.2488 26.558 66.1788 27.088C66.3488 26.628 66.5288 26.203 66.7188 25.813C66.9188 25.423 67.1138 25.078 67.3038 24.778L77.3838 9.88301C77.5238 9.65301 77.7038 9.44301 77.9238 9.25301C78.1438 9.06301 78.3988 8.96801 78.6888 8.96801H80.8488ZM85.099 10.978C85.909 10.258 86.849 9.70801 87.919 9.32801C88.989 8.94801 90.204 8.75801 91.564 8.75801C92.674 8.75801 93.669 8.89301 94.549 9.16301C95.439 9.43301 96.194 9.81301 96.814 10.303C97.434 10.793 97.909 11.373 98.239 12.043C98.579 12.713 98.749 13.448 98.749 14.248C98.749 15.328 98.479 16.278 97.939 17.098C97.409 17.918 96.659 18.553 95.689 19.003C96.239 19.233 96.739 19.518 97.189 19.858C97.639 20.188 98.024 20.563 98.344 20.983C98.674 21.403 98.924 21.863 99.094 22.363C99.274 22.863 99.364 23.388 99.364 23.938C99.364 24.878 99.189 25.758 98.839 26.578C98.489 27.398 97.979 28.113 97.309 28.723C96.649 29.323 95.834 29.798 94.864 30.148C93.894 30.498 92.789 30.673 91.549 30.673C90.009 30.673 88.624 30.423 87.394 29.923C86.164 29.413 85.109 28.728 84.229 27.868L85.069 26.488C85.149 26.378 85.249 26.288 85.369 26.218C85.489 26.138 85.619 26.098 85.759 26.098C85.969 26.098 86.219 26.213 86.509 26.443C86.799 26.663 87.169 26.908 87.619 27.178C88.069 27.448 88.614 27.698 89.254 27.928C89.904 28.148 90.694 28.258 91.624 28.258C92.414 28.258 93.119 28.163 93.739 27.973C94.369 27.783 94.894 27.508 95.314 27.148C95.744 26.788 96.069 26.348 96.289 25.828C96.519 25.308 96.634 24.723 96.634 24.073C96.634 23.513 96.524 22.998 96.304 22.528C96.094 22.058 95.784 21.658 95.374 21.328C94.964 20.988 94.464 20.728 93.874 20.548C93.284 20.358 92.619 20.263 91.879 20.263H88.939V17.878H91.759C92.369 17.878 92.934 17.803 93.454 17.653C93.984 17.503 94.434 17.283 94.804 16.993C95.184 16.703 95.479 16.348 95.689 15.928C95.909 15.508 96.019 15.028 96.019 14.488C96.019 13.998 95.919 13.548 95.719 13.138C95.519 12.728 95.229 12.378 94.849 12.088C94.469 11.788 94.004 11.558 93.454 11.398C92.904 11.238 92.279 11.158 91.579 11.158C90.769 11.158 90.079 11.243 89.509 11.413C88.939 11.583 88.459 11.773 88.069 11.983C87.679 12.183 87.359 12.368 87.109 12.538C86.869 12.708 86.659 12.793 86.479 12.793C86.319 12.793 86.189 12.758 86.089 12.688C85.989 12.618 85.894 12.503 85.804 12.343L85.099 10.978Z" fill="black"/>
<mask id="mask0_3_279" style="mask-type:alpha" maskUnits="userSpaceOnUse" x="0" y="0" width="36" height="37">
<rect y="0.463013" width="36" height="36" fill="#D9D9D9"/>
</mask>
<g mask="url(#mask0_3_279)">
<path d="M13.5 31.963H7.5C6.675 31.963 5.9685 31.6695 5.3805 31.0825C4.7935 30.4945 4.5 29.788 4.5 28.963V18.463C4.5 16.588 4.856 14.8315 5.568 13.1935C6.281 11.5565 7.244 10.1315 8.457 8.91851C9.669 7.70651 11.094 6.74401 12.732 6.03101C14.369 5.31901 16.125 4.96301 18 4.96301C19.875 4.96301 21.6315 5.31901 23.2695 6.03101C24.9065 6.74401 26.3315 7.70651 27.5445 8.91851C28.7565 10.1315 29.719 11.5565 30.432 13.1935C31.144 14.8315 31.5 16.588 31.5 18.463V28.963C31.5 29.788 31.2065 30.4945 30.6195 31.0825C30.0315 31.6695 29.325 31.963 28.5 31.963H22.5V19.963H28.5V18.463C28.5 15.538 27.481 13.0565 25.443 11.0185C23.406 8.98151 20.925 7.96301 18 7.96301C15.075 7.96301 12.594 8.98151 10.557 11.0185C8.519 13.0565 7.5 15.538 7.5 18.463V19.963H13.5V31.963ZM10.5 22.963H7.5V28.963H10.5V22.963ZM25.5 22.963V28.963H28.5V22.963H25.5Z" fill="#1C1B1F"/>
</g>
</svg>
