<svg width="141" height="39" viewBox="0 0 141 39" fill="none" xmlns="http://www.w3.org/2000/svg">
<path d="M57.9336 11.394H50.9736V30.444H48.0786V11.394H41.1036V8.94897H57.9336V11.394ZM70.9958 15.249L62.5208 34.929C62.4308 35.129 62.3158 35.289 62.1758 35.409C62.0458 35.529 61.8408 35.589 61.5608 35.589H59.5808L62.3558 29.559L56.0858 15.249H58.3958C58.6258 15.249 58.8058 15.309 58.9358 15.429C59.0758 15.539 59.1708 15.664 59.2208 15.804L63.2858 25.374C63.4458 25.794 63.5808 26.234 63.6908 26.694C63.8308 26.224 63.9808 25.779 64.1408 25.359L68.0858 15.804C68.1458 15.644 68.2458 15.514 68.3858 15.414C68.5358 15.304 68.7008 15.249 68.8808 15.249H70.9958ZM76.0395 26.784C76.5295 27.444 77.0645 27.909 77.6445 28.179C78.2245 28.449 78.8745 28.584 79.5945 28.584C81.0145 28.584 82.1045 28.079 82.8645 27.069C83.6245 26.059 84.0045 24.619 84.0045 22.749C84.0045 21.759 83.9145 20.909 83.7345 20.199C83.5645 19.489 83.3145 18.909 82.9845 18.459C82.6545 17.999 82.2495 17.664 81.7695 17.454C81.2895 17.244 80.7445 17.139 80.1345 17.139C79.2645 17.139 78.4995 17.339 77.8395 17.739C77.1895 18.139 76.5895 18.704 76.0395 19.434V26.784ZM75.9045 17.604C76.5445 16.814 77.2845 16.179 78.1245 15.699C78.9645 15.219 79.9245 14.979 81.0045 14.979C81.8845 14.979 82.6795 15.149 83.3895 15.489C84.0995 15.819 84.7045 16.314 85.2045 16.974C85.7045 17.624 86.0895 18.434 86.3595 19.404C86.6295 20.374 86.7645 21.489 86.7645 22.749C86.7645 23.869 86.6145 24.914 86.3145 25.884C86.0145 26.844 85.5795 27.679 85.0095 28.389C84.4495 29.089 83.7595 29.644 82.9395 30.054C82.1295 30.454 81.2145 30.654 80.1945 30.654C79.2645 30.654 78.4645 30.499 77.7945 30.189C77.1345 29.869 76.5495 29.429 76.0395 28.869V35.589H73.3545V15.249H74.9595C75.3395 15.249 75.5745 15.434 75.6645 15.804L75.9045 17.604ZM103.177 15.249V30.444H100.507V20.124C100.507 19.924 100.517 19.709 100.537 19.479C100.557 19.249 100.582 19.019 100.612 18.789C100.522 18.989 100.432 19.174 100.342 19.344C100.252 19.514 100.157 19.669 100.057 19.809L92.7216 29.784C92.6116 29.944 92.4716 30.099 92.3016 30.249C92.1416 30.389 91.9616 30.459 91.7616 30.459H90.1416V15.264H92.8266V25.584C92.8266 25.774 92.8166 25.984 92.7966 26.214C92.7766 26.434 92.7516 26.659 92.7216 26.889C92.8116 26.699 92.9016 26.524 92.9916 26.364C93.0816 26.194 93.1716 26.039 93.2616 25.899L100.597 15.924C100.707 15.764 100.847 15.614 101.017 15.474C101.187 15.324 101.372 15.249 101.572 15.249H103.177ZM106.437 16.809C107.007 16.269 107.697 15.834 108.507 15.504C109.327 15.174 110.312 15.009 111.462 15.009C112.382 15.009 113.192 15.124 113.892 15.354C114.592 15.574 115.177 15.869 115.647 16.239C116.127 16.609 116.487 17.034 116.727 17.514C116.977 17.984 117.102 18.474 117.102 18.984C117.102 19.284 117.052 19.599 116.952 19.929C116.862 20.259 116.707 20.574 116.487 20.874C116.267 21.174 115.982 21.454 115.632 21.714C115.282 21.974 114.847 22.184 114.327 22.344C115.297 22.634 116.057 23.099 116.607 23.739C117.167 24.379 117.447 25.164 117.447 26.094C117.447 26.794 117.287 27.429 116.967 27.999C116.647 28.559 116.217 29.039 115.677 29.439C115.137 29.829 114.507 30.129 113.787 30.339C113.077 30.549 112.332 30.654 111.552 30.654C111.062 30.654 110.562 30.609 110.052 30.519C109.552 30.429 109.062 30.289 108.582 30.099C108.102 29.899 107.647 29.654 107.217 29.364C106.797 29.074 106.422 28.724 106.092 28.314L106.842 27.339C106.962 27.169 107.132 27.084 107.352 27.084C107.532 27.084 107.722 27.164 107.922 27.324C108.132 27.474 108.387 27.644 108.687 27.834C108.987 28.024 109.352 28.199 109.782 28.359C110.222 28.509 110.757 28.584 111.387 28.584C111.937 28.584 112.427 28.519 112.857 28.389C113.297 28.249 113.667 28.059 113.967 27.819C114.267 27.579 114.497 27.294 114.657 26.964C114.817 26.634 114.897 26.274 114.897 25.884C114.897 25.134 114.582 24.529 113.952 24.069C113.332 23.609 112.387 23.379 111.117 23.379H109.392V21.609H111.117C111.667 21.609 112.162 21.554 112.602 21.444C113.042 21.324 113.417 21.164 113.727 20.964C114.037 20.764 114.272 20.524 114.432 20.244C114.592 19.954 114.672 19.644 114.672 19.314C114.672 19.014 114.602 18.729 114.462 18.459C114.332 18.189 114.127 17.954 113.847 17.754C113.577 17.554 113.237 17.394 112.827 17.274C112.417 17.154 111.937 17.094 111.387 17.094C110.787 17.094 110.277 17.154 109.857 17.274C109.447 17.394 109.097 17.524 108.807 17.664C108.527 17.804 108.297 17.934 108.117 18.054C107.937 18.174 107.782 18.234 107.652 18.234C107.522 18.234 107.412 18.209 107.322 18.159C107.242 18.109 107.152 18.004 107.052 17.844L106.437 16.809ZM137.809 15.204V30.444H135.394V20.349C135.394 20.069 135.409 19.759 135.439 19.419C135.479 19.069 135.529 18.744 135.589 18.444L130.309 27.699C130.229 27.849 130.124 27.969 129.994 28.059C129.864 28.149 129.714 28.194 129.544 28.194H129.244C129.074 28.194 128.919 28.149 128.779 28.059C128.649 27.969 128.544 27.849 128.464 27.699L123.094 18.414C123.144 18.714 123.189 19.044 123.229 19.404C123.269 19.754 123.289 20.069 123.289 20.349V30.444H120.874V15.204H123.019C123.209 15.204 123.394 15.249 123.574 15.339C123.754 15.419 123.909 15.574 124.039 15.804L128.779 23.724C129.009 24.184 129.214 24.669 129.394 25.179C129.564 24.649 129.764 24.164 129.994 23.724L134.644 15.804C134.774 15.564 134.929 15.404 135.109 15.324C135.289 15.244 135.474 15.204 135.664 15.204H137.809Z" fill="black"/>
<mask id="mask0_3_274" style="mask-type:alpha" maskUnits="userSpaceOnUse" x="0" y="2" width="36" height="37">
<rect y="2.463" width="36" height="36" fill="#D9D9D9"/>
</mask>
<g mask="url(#mask0_3_274)">
<path d="M7.5 35.463V5.463H10.5V8.463H31.5L28.5 15.963L31.5 23.463H10.5V35.463H7.5ZM18.75 18.963C19.575 18.963 20.2815 18.669 20.8695 18.081C21.4565 17.494 21.75 16.788 21.75 15.963C21.75 15.138 21.4565 14.4315 20.8695 13.8435C20.2815 13.2565 19.575 12.963 18.75 12.963C17.925 12.963 17.219 13.2565 16.632 13.8435C16.044 14.4315 15.75 15.138 15.75 15.963C15.75 16.788 16.044 17.494 16.632 18.081C17.219 18.669 17.925 18.963 18.75 18.963ZM10.5 20.463H27.075L25.275 15.963L27.075 11.463H10.5V20.463Z" fill="#1C1B1F"/>
</g>
</svg>
