<svg width="220" height="38" viewBox="0 0 220 38" fill="none" xmlns="http://www.w3.org/2000/svg">
<path d="M58.835 25.56C58.995 25.56 59.135 25.625 59.255 25.755L60.41 27C59.53 28.02 58.46 28.815 57.2 29.385C55.95 29.955 54.435 30.24 52.655 30.24C51.115 30.24 49.715 29.975 48.455 29.445C47.195 28.905 46.12 28.155 45.23 27.195C44.34 26.225 43.65 25.065 43.16 23.715C42.67 22.365 42.425 20.88 42.425 19.26C42.425 17.64 42.68 16.155 43.19 14.805C43.7 13.455 44.415 12.295 45.335 11.325C46.265 10.355 47.375 9.605 48.665 9.075C49.955 8.535 51.38 8.265 52.94 8.265C54.47 8.265 55.82 8.51 56.99 9C58.16 9.49 59.19 10.155 60.08 10.995L59.12 12.33C59.06 12.43 58.98 12.515 58.88 12.585C58.79 12.645 58.665 12.675 58.505 12.675C58.325 12.675 58.105 12.58 57.845 12.39C57.585 12.19 57.245 11.97 56.825 11.73C56.405 11.49 55.88 11.275 55.25 11.085C54.62 10.885 53.845 10.785 52.925 10.785C51.815 10.785 50.8 10.98 49.88 11.37C48.96 11.75 48.165 12.305 47.495 13.035C46.835 13.765 46.32 14.655 45.95 15.705C45.58 16.755 45.395 17.94 45.395 19.26C45.395 20.6 45.585 21.795 45.965 22.845C46.355 23.895 46.88 24.785 47.54 25.515C48.21 26.235 48.995 26.785 49.895 27.165C50.805 27.545 51.785 27.735 52.835 27.735C53.475 27.735 54.05 27.7 54.56 27.63C55.08 27.55 55.555 27.43 55.985 27.27C56.425 27.11 56.83 26.91 57.2 26.67C57.58 26.42 57.955 26.125 58.325 25.785C58.495 25.635 58.665 25.56 58.835 25.56ZM75.7262 30H73.0412V16.845H65.7512V30H63.0662V14.805H75.7262V30ZM90.1405 20.745C90.1405 20.125 90.0505 19.56 89.8705 19.05C89.7005 18.53 89.4455 18.085 89.1055 17.715C88.7755 17.335 88.3705 17.045 87.8905 16.845C87.4105 16.635 86.8655 16.53 86.2555 16.53C84.9755 16.53 83.9605 16.905 83.2105 17.655C82.4705 18.395 82.0105 19.425 81.8305 20.745H90.1405ZM92.3005 27.87C91.9705 28.27 91.5755 28.62 91.1155 28.92C90.6555 29.21 90.1605 29.45 89.6305 29.64C89.1105 29.83 88.5705 29.97 88.0105 30.06C87.4505 30.16 86.8955 30.21 86.3455 30.21C85.2955 30.21 84.3255 30.035 83.4355 29.685C82.5555 29.325 81.7905 28.805 81.1405 28.125C80.5005 27.435 80.0005 26.585 79.6405 25.575C79.2805 24.565 79.1005 23.405 79.1005 22.095C79.1005 21.035 79.2605 20.045 79.5805 19.125C79.9105 18.205 80.3805 17.41 80.9905 16.74C81.6005 16.06 82.3455 15.53 83.2255 15.15C84.1055 14.76 85.0955 14.565 86.1955 14.565C87.1055 14.565 87.9455 14.72 88.7155 15.03C89.4955 15.33 90.1655 15.77 90.7255 16.35C91.2955 16.92 91.7405 17.63 92.0605 18.48C92.3805 19.32 92.5405 20.28 92.5405 21.36C92.5405 21.78 92.4955 22.06 92.4055 22.2C92.3155 22.34 92.1455 22.41 91.8955 22.41H81.7405C81.7705 23.37 81.9005 24.205 82.1305 24.915C82.3705 25.625 82.7005 26.22 83.1205 26.7C83.5405 27.17 84.0405 27.525 84.6205 27.765C85.2005 27.995 85.8505 28.11 86.5705 28.11C87.2405 28.11 87.8155 28.035 88.2955 27.885C88.7855 27.725 89.2055 27.555 89.5555 27.375C89.9055 27.195 90.1955 27.03 90.4255 26.88C90.6655 26.72 90.8705 26.64 91.0405 26.64C91.2605 26.64 91.4305 26.725 91.5505 26.895L92.3005 27.87ZM111.255 27.975V34.41C111.255 34.67 111.18 34.87 111.03 35.01C110.89 35.16 110.705 35.235 110.475 35.235H108.84V30H95.8201V14.805H98.5051V27.975H105.795V14.805H108.48V27.975H111.255ZM120.096 14.565C121.206 14.565 122.206 14.75 123.096 15.12C123.986 15.49 124.746 16.015 125.376 16.695C126.006 17.375 126.486 18.2 126.816 19.17C127.156 20.13 127.326 21.205 127.326 22.395C127.326 23.595 127.156 24.675 126.816 25.635C126.486 26.595 126.006 27.415 125.376 28.095C124.746 28.775 123.986 29.3 123.096 29.67C122.206 30.03 121.206 30.21 120.096 30.21C118.976 30.21 117.966 30.03 117.066 29.67C116.176 29.3 115.416 28.775 114.786 28.095C114.156 27.415 113.671 26.595 113.331 25.635C113.001 24.675 112.836 23.595 112.836 22.395C112.836 21.205 113.001 20.13 113.331 19.17C113.671 18.2 114.156 17.375 114.786 16.695C115.416 16.015 116.176 15.49 117.066 15.12C117.966 14.75 118.976 14.565 120.096 14.565ZM120.096 28.125C121.596 28.125 122.716 27.625 123.456 26.625C124.196 25.615 124.566 24.21 124.566 22.41C124.566 20.6 124.196 19.19 123.456 18.18C122.716 17.17 121.596 16.665 120.096 16.665C119.336 16.665 118.671 16.795 118.101 17.055C117.541 17.315 117.071 17.69 116.691 18.18C116.321 18.67 116.041 19.275 115.851 19.995C115.671 20.705 115.581 21.51 115.581 22.41C115.581 24.21 115.951 25.615 116.691 26.625C117.441 27.625 118.576 28.125 120.096 28.125ZM140.626 28.05V16.905H135.811C135.711 18.465 135.571 19.845 135.391 21.045C135.211 22.245 135.001 23.3 134.761 24.21C134.531 25.11 134.271 25.875 133.981 26.505C133.701 27.135 133.406 27.65 133.096 28.05H140.626ZM145.996 27.975V34.41C145.996 34.67 145.921 34.87 145.771 35.01C145.631 35.16 145.446 35.235 145.216 35.235H143.581V30H130.801V34.47C130.801 34.66 130.741 34.835 130.621 34.995C130.511 35.155 130.326 35.235 130.066 35.235H128.386V28.05H128.881C129.231 28.05 129.576 27.99 129.916 27.87C130.266 27.75 130.601 27.525 130.921 27.195C131.241 26.855 131.541 26.38 131.821 25.77C132.111 25.16 132.371 24.365 132.601 23.385C132.831 22.405 133.031 21.215 133.201 19.815C133.371 18.405 133.506 16.735 133.606 14.805H143.221V27.975H145.996ZM158.607 20.745C158.607 20.125 158.517 19.56 158.337 19.05C158.167 18.53 157.912 18.085 157.572 17.715C157.242 17.335 156.837 17.045 156.357 16.845C155.877 16.635 155.332 16.53 154.722 16.53C153.442 16.53 152.427 16.905 151.677 17.655C150.937 18.395 150.477 19.425 150.297 20.745H158.607ZM160.767 27.87C160.437 28.27 160.042 28.62 159.582 28.92C159.122 29.21 158.627 29.45 158.097 29.64C157.577 29.83 157.037 29.97 156.477 30.06C155.917 30.16 155.362 30.21 154.812 30.21C153.762 30.21 152.792 30.035 151.902 29.685C151.022 29.325 150.257 28.805 149.607 28.125C148.967 27.435 148.467 26.585 148.107 25.575C147.747 24.565 147.567 23.405 147.567 22.095C147.567 21.035 147.727 20.045 148.047 19.125C148.377 18.205 148.847 17.41 149.457 16.74C150.067 16.06 150.812 15.53 151.692 15.15C152.572 14.76 153.562 14.565 154.662 14.565C155.572 14.565 156.412 14.72 157.182 15.03C157.962 15.33 158.632 15.77 159.192 16.35C159.762 16.92 160.207 17.63 160.527 18.48C160.847 19.32 161.007 20.28 161.007 21.36C161.007 21.78 160.962 22.06 160.872 22.2C160.782 22.34 160.612 22.41 160.362 22.41H150.207C150.237 23.37 150.367 24.205 150.597 24.915C150.837 25.625 151.167 26.22 151.587 26.7C152.007 27.17 152.507 27.525 153.087 27.765C153.667 27.995 154.317 28.11 155.037 28.11C155.707 28.11 156.282 28.035 156.762 27.885C157.252 27.725 157.672 27.555 158.022 27.375C158.372 27.195 158.662 27.03 158.892 26.88C159.132 26.72 159.337 26.64 159.507 26.64C159.727 26.64 159.897 26.725 160.017 26.895L160.767 27.87ZM185.32 30H183.46C182.98 30 182.61 29.925 182.35 29.775C182.1 29.625 181.905 29.39 181.765 29.07L178.81 24.345C178.32 23.565 177.615 23.175 176.695 23.175H175.165V30.015H172.57V23.175H171.055C170.605 23.175 170.195 23.275 169.825 23.475C169.465 23.675 169.17 23.965 168.94 24.345L165.985 29.07C165.835 29.39 165.63 29.625 165.37 29.775C165.12 29.925 164.755 30 164.275 30H162.43L166.42 23.715C166.68 23.275 166.975 22.92 167.305 22.65C167.635 22.38 168.04 22.175 168.52 22.035C168.14 21.915 167.815 21.74 167.545 21.51C167.285 21.27 167.04 20.965 166.81 20.595L162.85 14.805H164.95C165.21 14.805 165.445 14.875 165.655 15.015C165.865 15.145 166.03 15.325 166.15 15.555L169.375 20.355C169.595 20.685 169.86 20.94 170.17 21.12C170.48 21.29 170.845 21.375 171.265 21.375H172.57V14.805H175.165V21.375H176.44C177.29 21.375 177.93 21.035 178.36 20.355L181.585 15.555C181.705 15.325 181.87 15.145 182.08 15.015C182.3 14.875 182.54 14.805 182.8 14.805H184.9L180.94 20.595C180.71 20.965 180.46 21.27 180.19 21.51C179.93 21.74 179.61 21.915 179.23 22.035C179.71 22.175 180.115 22.38 180.445 22.65C180.775 22.92 181.07 23.275 181.33 23.715L185.32 30ZM198.282 28.05V16.905H193.467C193.367 18.465 193.227 19.845 193.047 21.045C192.867 22.245 192.657 23.3 192.417 24.21C192.187 25.11 191.927 25.875 191.637 26.505C191.357 27.135 191.062 27.65 190.752 28.05H198.282ZM203.652 27.975V34.41C203.652 34.67 203.577 34.87 203.427 35.01C203.287 35.16 203.102 35.235 202.872 35.235H201.237V30H188.457V34.47C188.457 34.66 188.397 34.835 188.277 34.995C188.167 35.155 187.982 35.235 187.722 35.235H186.042V28.05H186.537C186.887 28.05 187.232 27.99 187.572 27.87C187.922 27.75 188.257 27.525 188.577 27.195C188.897 26.855 189.197 26.38 189.477 25.77C189.767 25.16 190.027 24.365 190.257 23.385C190.487 22.405 190.687 21.215 190.857 19.815C191.027 18.405 191.162 16.735 191.262 14.805H200.877V27.975H203.652ZM214.592 23.16C213.362 23.2 212.312 23.3 211.442 23.46C210.582 23.61 209.877 23.81 209.327 24.06C208.787 24.31 208.392 24.605 208.142 24.945C207.902 25.285 207.782 25.665 207.782 26.085C207.782 26.485 207.847 26.83 207.977 27.12C208.107 27.41 208.282 27.65 208.502 27.84C208.732 28.02 208.997 28.155 209.297 28.245C209.607 28.325 209.937 28.365 210.287 28.365C210.757 28.365 211.187 28.32 211.577 28.23C211.967 28.13 212.332 27.99 212.672 27.81C213.022 27.63 213.352 27.415 213.662 27.165C213.982 26.915 214.292 26.63 214.592 26.31V23.16ZM205.967 16.95C206.807 16.14 207.712 15.535 208.682 15.135C209.652 14.735 210.727 14.535 211.907 14.535C212.757 14.535 213.512 14.675 214.172 14.955C214.832 15.235 215.387 15.625 215.837 16.125C216.287 16.625 216.627 17.23 216.857 17.94C217.087 18.65 217.202 19.43 217.202 20.28V30H216.017C215.757 30 215.557 29.96 215.417 29.88C215.277 29.79 215.167 29.62 215.087 29.37L214.787 27.93C214.387 28.3 213.997 28.63 213.617 28.92C213.237 29.2 212.837 29.44 212.417 29.64C211.997 29.83 211.547 29.975 211.067 30.075C210.597 30.185 210.072 30.24 209.492 30.24C208.902 30.24 208.347 30.16 207.827 30C207.307 29.83 206.852 29.58 206.462 29.25C206.082 28.92 205.777 28.505 205.547 28.005C205.327 27.495 205.217 26.895 205.217 26.205C205.217 25.605 205.382 25.03 205.712 24.48C206.042 23.92 206.577 23.425 207.317 22.995C208.057 22.565 209.022 22.215 210.212 21.945C211.402 21.665 212.862 21.505 214.592 21.465V20.28C214.592 19.1 214.337 18.21 213.827 17.61C213.317 17 212.572 16.695 211.592 16.695C210.932 16.695 210.377 16.78 209.927 16.95C209.487 17.11 209.102 17.295 208.772 17.505C208.452 17.705 208.172 17.89 207.932 18.06C207.702 18.22 207.472 18.3 207.242 18.3C207.062 18.3 206.907 18.255 206.777 18.165C206.647 18.065 206.537 17.945 206.447 17.805L205.967 16.95Z" fill="black"/>
<mask id="mask0_3_258" style="mask-type:alpha" maskUnits="userSpaceOnUse" x="0" y="2" width="36" height="36">
<rect y="2" width="36" height="36" fill="#D9D9D9"/>
</mask>
<g mask="url(#mask0_3_258)">
<path d="M18 11C17.175 11 16.469 10.706 15.882 10.118C15.294 9.531 15 8.825 15 8C15 7.175 15.294 6.4685 15.882 5.8805C16.469 5.2935 17.175 5 18 5C18.825 5 19.5315 5.2935 20.1195 5.8805C20.7065 6.4685 21 7.175 21 8C21 8.825 20.7065 9.531 20.1195 10.118C19.5315 10.706 18.825 11 18 11ZM13.5 35V15.5H4.5V12.5H31.5V15.5H22.5V35H19.5V26H16.5V35H13.5Z" fill="#1C1B1F"/>
</g>
</svg>
